<svg xmlns="http://www.w3.org/2000/svg" style="display: none;">  

  <symbol id="icon-google" viewBox="0 0 512 512">
    <path fill="#FBBB00" d="M113.489 309.398L95.6638 375.904L30.508 377.277C10.8048 340.584 0.336385 299.642 0.00797318 257.994C-0.320438 216.346 9.50106 175.245 28.6231 138.245L86.6118 148.88L112.046 206.497C100.623 239.918 101.133 276.264 113.489 309.351V309.398Z" />
    <path fill="#518EF8" d="M507.496 208.172C516.173 253.813 512.265 300.955 496.192 344.543C480.118 388.132 452.485 426.525 416.254 455.605L343.21 451.882L332.878 387.353C363.04 369.673 386.214 342.169 398.522 309.444H261.649V208.172H507.519H507.496Z" />
    <path fill="#28B446" d="M416.231 455.605C386.944 479.125 352.84 495.912 316.339 504.774C279.838 513.636 241.833 514.356 205.022 506.883C168.212 499.409 133.497 483.925 103.341 461.531C73.1848 439.136 48.3271 410.38 30.5312 377.301L113.489 309.398C121.276 330.159 133.505 348.969 149.32 364.511C165.135 380.053 184.154 391.951 205.048 399.376C225.941 406.801 248.204 409.572 270.28 407.495C292.356 405.419 313.712 398.545 332.854 387.353L416.231 455.605Z" />
    <path fill="#F14336" d="M419.372 58.9402L336.461 126.843C317.036 114.742 295.132 107.178 272.379 104.712C249.626 102.247 226.61 104.944 205.044 112.603C183.478 120.263 163.916 132.687 147.815 148.951C131.714 165.215 119.488 184.901 112.046 206.543L28.6697 138.269C46.2545 104.309 71.2248 74.7214 101.746 51.6796C132.267 28.6379 167.563 12.7278 205.04 5.11842C242.517 -2.49095 281.223 -1.60617 318.313 7.70773C355.404 17.0216 389.936 34.528 419.372 58.9402Z" />
  </symbol>

  <symbol id="icon-apple" viewBox="0 0 415 512">
    <path fill-rule="evenodd" clip-rule="evenodd" d="M414.839 375.875C410.721 373.269 406.207 371.221 401.507 368.336C376.227 353.057 357.918 328.505 350.485 299.917C343.053 271.329 347.084 240.968 361.721 215.311C369.419 203.232 378.957 192.43 389.99 183.296C393.759 180.387 397.319 177.805 401.088 174.571C395.218 165.391 387.895 157.226 379.404 150.396C364.295 138.515 346.628 130.314 327.802 126.441C308.975 122.568 289.506 123.131 270.934 128.084C258.812 131.853 248.994 135.529 236.895 140.113C225.324 146.628 211.714 148.515 198.807 145.394C176.285 135.083 152.312 128.295 127.728 125.269C102.822 125.689 78.6227 133.62 58.2993 148.023C56.2053 149.443 53.5064 151.792 51.7382 153.212C-33.0226 225.013 -0.332895 369.151 55.0885 449.491C58.4622 454.4 61.4637 458.797 64.8839 463.195C68.3042 467.592 71.3752 472.292 74.7955 475.945C105.182 508.518 120.143 522.595 168.142 503.097C179.128 498.032 190.703 494.358 202.6 492.162C236.499 486.88 251.32 499.142 277.333 507.727C289.161 511.868 301.935 512.494 314.112 509.529C326.288 506.565 337.346 500.137 345.946 491.022C360.981 474.941 374.401 457.422 386.012 438.718C398.263 419.107 407.921 397.991 414.746 375.898L414.839 375.875ZM309.138 0.0234315C310.767 21.6598 306.152 43.3093 295.842 62.4005C285.531 81.4918 269.958 97.223 250.971 107.726C241.432 113.007 212.744 122.243 207.649 117.264C204.95 114.635 207.23 95.906 208.021 91.6714C214.013 64.7281 228.966 40.613 250.436 23.2668C267.572 10.3412 287.891 2.30066 309.231 0L309.138 0.0234315Z" />
  </symbol>

  <symbol id="icon-facebook" viewBox="0 0 275 512">
    <path d="M205.787 0C133.705 0 91.4286 38.0709 91.4286 124.818V201.143H0V292.571H91.4286V512H182.857V292.571H256L274.286 201.143H182.857V140.288C182.857 107.611 193.518 91.4286 224.183 91.4286H274.286V3.74857C265.618 2.57828 240.366 0 205.787 0Z" />
  </symbol>

  <symbol id="icon-marker" viewBox="0 0 405 512">
    <path id="icon-marker-solid" fill="#b12083" d="M404.055 203.061C404.06 171.998 396.903 141.353 383.139 113.507C369.375 85.6602 349.376 61.3626 324.695 42.5022C300.014 23.6418 271.316 10.7266 240.832 4.76025C210.348 -1.20606 178.899 -0.0627794 148.929 8.10131C118.959 16.2654 91.2742 31.2304 68.0279 51.8332C44.7815 72.436 26.599 98.1217 14.8935 126.894C3.18801 155.666 -1.72496 186.75 0.535881 217.73C2.79672 248.71 12.1705 278.752 27.9292 305.52V306.274C35.6237 319.317 45.3572 328.729 55.2023 342.582L172.897 498.344C176.275 502.891 180.67 506.584 185.731 509.129C190.791 511.673 196.377 512.999 202.041 512.999C207.706 512.999 213.291 511.673 218.352 509.129C223.412 506.584 227.808 502.891 231.186 498.344L346.367 344.663C356.9 332.195 366.72 319.14 375.776 305.562V305.031C394.072 274.124 403.849 238.92 404.111 203.005L404.055 203.061Z" />
    <path id="icon-marker-logo" fill="#fff" fill-rule="evenodd" clip-rule="evenodd" d="M191.86 62C269.77 62 333 124.864 333 202.501C333 279.359 271.028 341.741 194.192 342.981L191.86 343H167.94L164.073 338.764V285.97C164.073 285.97 169.078 280.445 169.04 280.445H191.86C235.295 280.445 270.434 245.508 270.434 202.501C270.434 159.921 235.994 125.255 193.16 124.565L191.86 124.555H175.942L156.566 143.929V241.012L151.29 245.911H99.4896L94 241.012V138.412L99.4896 133.313H145.948L164.073 115.19V68.4622C164.073 68.4622 169.308 62 169.637 62H191.86Z" />
  </symbol>

  <symbol id="icon-map-and-marker" viewBox="0 0 512 512">
    <path d="M347.422 0.00143487C325.788 -0.0890971 304.35 4.10526 284.346 12.3425C264.341 20.5797 246.165 32.6968 230.868 47.9945C215.57 63.2923 203.453 81.4679 195.216 101.473C186.978 121.477 182.784 142.915 182.875 164.549C183.872 196.645 192.656 228.017 208.472 255.963H164.581C162.002 255.691 159.41 256.339 157.263 257.793C155.434 259.622 153.604 259.622 151.775 261.451L5.5209 407.775C2.77833 410.254 0.932451 413.57 0.270693 417.208C-0.391064 420.845 0.168448 424.599 1.86211 427.885C3.18535 431.154 5.46216 433.95 8.3962 435.907C11.3302 437.865 14.7857 438.894 18.3127 438.861H138.983L206.699 506.451C208.307 508.237 210.283 509.653 212.492 510.6C214.7 511.548 217.088 512.005 219.49 511.939H347.478C350.057 512.212 352.649 511.564 354.796 510.11C356.625 508.28 358.455 508.28 360.284 506.451L506.482 360.183C508.311 358.354 510.141 356.524 510.141 354.695C511.984 349.995 511.984 344.773 510.141 340.074C508.076 336.178 504.889 332.992 500.994 330.927C498.847 329.473 496.255 328.825 493.676 329.097H433.348C473.567 283.39 511.97 224.878 511.97 164.549C512.061 142.915 507.866 121.477 499.629 101.473C491.392 81.4679 479.275 63.2923 463.977 47.9945C448.679 32.6968 430.504 20.5797 410.499 12.3425C390.494 4.10526 369.057 -0.0890971 347.422 0.00143487ZM347.422 36.5754C364.26 36.4697 380.95 39.708 396.526 46.1026C412.102 52.4971 426.253 61.9206 438.159 73.8265C450.065 85.7324 459.489 99.8837 465.883 115.46C472.278 131.036 475.516 147.726 475.41 164.563C475.41 230.38 413.253 299.855 376.679 334.599C367.513 343.779 357.739 352.331 347.422 360.197C313.233 332.184 283.085 299.574 257.838 263.295C232.245 226.726 219.448 193.815 219.448 164.563C219.343 147.727 222.581 131.038 228.974 115.463C235.368 99.8879 244.79 85.7372 256.695 73.8315C268.599 61.9258 282.749 52.502 298.323 46.1066C313.897 39.7113 330.586 36.4715 347.422 36.5754ZM159.106 407.775C157.498 405.989 155.522 404.574 153.313 403.626C151.105 402.678 148.717 402.222 146.315 402.287H62.2042L171.898 292.579H232.24C261.79 332.68 296.88 368.385 336.46 398.628C339.797 400.657 343.549 401.908 347.436 402.287C351.324 401.908 355.075 400.657 358.413 398.628C358.413 398.628 374.863 385.836 396.802 365.713H449.869L340.175 475.421H226.752L159.106 407.775Z" />
    <path d="M347.422 252.318C359.46 252.436 371.4 250.152 382.544 245.599C393.688 241.047 403.812 234.318 412.324 225.806C420.836 217.294 427.565 207.17 432.117 196.026C436.67 184.882 438.954 172.942 438.836 160.904C438.836 136.66 429.205 113.409 412.062 96.2651C394.918 79.1216 371.667 69.4906 347.422 69.4906C323.178 69.4906 299.926 79.1216 282.783 96.2651C265.64 113.409 256.008 136.66 256.008 160.904C255.891 172.942 258.175 184.882 262.728 196.026C267.28 207.17 274.009 217.294 282.521 225.806C291.033 234.318 301.157 241.047 312.301 245.599C323.445 250.152 335.385 252.436 347.422 252.318ZM347.422 106.051C354.662 105.918 361.855 107.246 368.57 109.956C375.285 112.666 381.385 116.701 386.505 121.822C391.626 126.942 395.661 133.042 398.371 139.757C401.081 146.472 402.409 153.664 402.276 160.904C402.392 168.181 401.06 175.407 398.355 182.163C395.651 188.92 391.63 195.07 386.525 200.257C381.421 205.443 375.335 209.562 368.623 212.374C361.911 215.186 354.707 216.634 347.429 216.634C340.152 216.634 332.948 215.186 326.236 212.374C319.524 209.562 313.438 205.443 308.334 200.257C303.229 195.07 299.208 188.92 296.503 182.163C293.799 175.407 292.466 168.181 292.582 160.904C292.45 153.666 293.778 146.474 296.487 139.76C299.195 133.046 303.23 126.947 308.349 121.827C313.467 116.707 319.566 112.671 326.279 109.96C332.993 107.25 340.184 105.92 347.422 106.051Z" />
  </symbol>
  
  <symbol id="icon-view" viewBox="0 0 517 512">
    <path d="M489.929 511.998H208.208C201.09 511.998 194.263 509.171 189.229 504.137C184.195 499.103 181.368 492.276 181.368 485.158V417.848C181.368 410.729 184.195 403.902 189.229 398.869C194.263 393.835 201.09 391.007 208.208 391.007H489.437C496.556 391.007 503.383 393.835 508.417 398.869C513.45 403.902 516.278 410.729 516.278 417.848V485.098C516.391 488.615 515.791 492.118 514.514 495.396C513.237 498.674 511.309 501.66 508.847 504.174C506.385 506.687 503.44 508.676 500.189 510.021C496.937 511.366 493.448 512.038 489.929 511.998ZM221.166 472.14H476.986V430.806H221.166V472.14ZM118.054 511.998H27.8993C24.2339 512.004 20.6033 511.287 17.2157 509.887C13.8282 508.487 10.7503 506.432 8.1584 503.84C5.56654 501.248 3.51172 498.17 2.11174 494.783C0.711759 491.395 -0.00585544 487.765 3.59826e-05 484.099V418.34C-0.00389186 414.676 0.715171 411.047 2.11603 407.661C3.51689 404.275 5.57202 401.199 8.16369 398.608C10.7553 396.018 13.8326 393.965 17.2192 392.566C20.6058 391.167 24.2351 390.45 27.8993 390.455H118.054C121.719 390.45 125.35 391.167 128.737 392.567C132.125 393.967 135.203 396.022 137.795 398.614C140.386 401.206 142.441 404.284 143.841 407.671C145.241 411.059 145.959 414.689 145.953 418.355V484.099C145.959 487.765 145.241 491.395 143.841 494.783C142.441 498.17 140.386 501.248 137.795 503.84C135.203 506.432 132.125 508.487 128.737 509.887C125.35 511.287 121.719 512.004 118.054 511.998ZM39.8433 472.14H106.095V430.806H39.8433V472.14Z" />
    <path d="M489.929 316.763H208.208C201.09 316.763 194.263 313.935 189.229 308.902C184.195 303.868 181.368 297.041 181.368 289.923V222.613C181.368 215.494 184.195 208.667 189.229 203.633C194.263 198.6 201.09 195.772 208.208 195.772H489.437C496.556 195.772 503.383 198.6 508.417 203.633C513.45 208.667 516.278 215.494 516.278 222.613V289.863C516.391 293.38 515.791 296.883 514.514 300.161C513.237 303.439 511.309 306.425 508.847 308.939C506.385 311.452 503.44 313.441 500.189 314.786C496.937 316.131 493.448 316.803 489.929 316.763ZM221.166 276.905H476.986V235.571H221.166V276.905ZM118.054 316.763H27.8993C24.2339 316.769 20.6033 316.051 17.2157 314.651C13.8282 313.252 10.7503 311.197 8.1584 308.605C5.56654 306.013 3.51172 302.935 2.11174 299.548C0.711759 296.16 -0.00585544 292.529 3.59826e-05 288.864V223.105C-0.00389186 219.44 0.715171 215.811 2.11603 212.426C3.51689 209.04 5.57202 205.964 8.16369 203.373C10.7553 200.783 13.8326 198.73 17.2192 197.331C20.6058 195.932 24.2351 195.214 27.8993 195.22H118.054C121.719 195.214 125.35 195.932 128.737 197.332C132.125 198.732 135.203 200.787 137.795 203.379C140.386 205.971 142.441 209.048 143.841 212.436C145.241 215.824 145.959 219.454 145.953 223.12V288.864C145.959 292.529 145.241 296.16 143.841 299.548C142.441 302.935 140.386 306.013 137.795 308.605C135.203 311.197 132.125 313.252 128.737 314.651C125.35 316.051 121.719 316.769 118.054 316.763ZM39.8433 276.905H106.095V235.571H39.8433V276.905Z" />
    <path d="M489.929 121.543H208.208C201.09 121.543 194.263 118.715 189.229 113.682C184.195 108.648 181.368 101.821 181.368 94.7024V27.3923C181.368 20.2737 184.195 13.4467 189.229 8.41316C194.263 3.37958 201.09 0.551768 208.208 0.551768H489.437C496.556 0.551768 503.383 3.37958 508.417 8.41316C513.45 13.4467 516.278 20.2737 516.278 27.3923V94.6428C516.391 98.1593 515.791 101.662 514.514 104.941C513.237 108.219 511.309 111.205 508.847 113.718C506.385 116.232 503.44 118.221 500.189 119.566C496.937 120.91 493.448 121.583 489.929 121.543ZM221.166 81.6848H476.986V40.3503H221.166V81.6848ZM118.054 121.543H27.8993C24.2339 121.549 20.6033 120.831 17.2157 119.431C13.8282 118.031 10.7503 115.976 8.1584 113.385C5.56654 110.793 3.51172 107.715 2.11174 104.327C0.711759 100.94 -0.00585544 97.3092 3.59826e-05 93.6437V27.8844C-0.00389186 24.2202 0.715171 20.5912 2.11603 17.2054C3.51689 13.8196 5.57202 10.7434 8.16369 8.15312C10.7553 5.56284 13.8326 3.50937 17.2192 2.11032C20.6058 0.71127 24.2351 -0.00585079 27.8993 3.59825e-05H118.054C121.719 -0.00585544 125.35 0.711761 128.737 2.11174C132.125 3.51173 135.203 5.56655 137.795 8.15841C140.386 10.7503 142.441 13.8282 143.841 17.2157C145.241 20.6033 145.959 24.2339 145.953 27.8993V93.6437C145.959 97.3092 145.241 100.94 143.841 104.327C142.441 107.715 140.386 110.793 137.795 113.385C135.203 115.976 132.125 118.031 128.737 119.431C125.35 120.831 121.719 121.549 118.054 121.543ZM39.8433 81.6848H106.095V40.3503H39.8433V81.6848Z" />
  </symbol>
  
  <symbol id="icon-chademo" viewBox="0 0 507 512">
    <path fill-rule="evenodd" clip-rule="evenodd" d="M203.168 167.312C212.227 167.294 221.012 170.417 228.026 176.151C235.039 181.885 239.847 189.874 241.63 198.755C243.413 207.637 242.06 216.863 237.802 224.859C233.544 232.855 226.645 239.127 218.281 242.605C209.916 246.084 200.604 246.554 191.932 243.935C183.26 241.316 175.764 235.771 170.723 228.244C165.682 220.717 163.407 211.675 164.286 202.659C165.166 193.643 169.145 185.21 175.546 178.8L175.628 178.718C182.933 171.415 192.839 167.318 203.168 167.312ZM213.046 196.499C210.426 193.885 206.88 192.413 203.179 192.403C199.478 192.393 195.923 193.846 193.29 196.446L193.237 196.499C191.28 198.457 189.948 200.952 189.408 203.668C188.869 206.384 189.147 209.199 190.207 211.757C191.267 214.314 193.061 216.501 195.364 218.039C197.666 219.577 200.373 220.398 203.142 220.398C205.911 220.398 208.617 219.577 210.92 218.039C213.222 216.501 215.017 214.314 216.077 211.757C217.137 209.199 217.415 206.384 216.876 203.668C216.336 200.952 215.004 198.457 213.046 196.499Z" />
    <path fill-rule="evenodd" clip-rule="evenodd" d="M303.494 167.312C312.555 167.293 321.342 170.417 328.358 176.151C335.373 181.886 340.183 189.876 341.966 198.76C343.75 207.644 342.397 216.871 338.138 224.869C333.88 232.867 326.979 239.14 318.613 242.62C310.246 246.099 300.932 246.569 292.258 243.949C283.584 241.33 276.087 235.783 271.045 228.254C266.003 220.726 263.728 211.681 264.608 202.663C265.489 193.645 269.469 185.211 275.872 178.8L275.954 178.718C283.259 171.413 293.164 167.316 303.494 167.312ZM313.373 196.499C310.751 193.885 307.203 192.412 303.501 192.402C299.799 192.392 296.243 193.846 293.608 196.446L293.556 196.499C291.6 198.458 290.268 200.953 289.73 203.668C289.191 206.384 289.47 209.198 290.53 211.755C291.59 214.312 293.385 216.498 295.687 218.036C297.989 219.573 300.696 220.394 303.464 220.394C306.233 220.394 308.939 219.573 311.241 218.036C313.543 216.498 315.338 214.312 316.398 211.755C317.459 209.198 317.737 206.384 317.199 203.668C316.66 200.953 315.329 198.458 313.373 196.499Z" />
    <path fill-rule="evenodd" clip-rule="evenodd" d="M253.331 281.61C262.39 281.592 271.175 284.716 278.189 290.449C285.202 296.183 290.01 304.172 291.793 313.053C293.576 321.935 292.223 331.16 287.965 339.156C283.707 347.153 276.808 353.425 268.444 356.903C260.079 360.382 250.767 360.852 242.095 358.233C233.423 355.614 225.927 350.069 220.886 342.542C215.845 335.015 213.57 325.973 214.449 316.957C215.329 307.94 219.308 299.508 225.709 293.098L225.791 293.016C233.096 285.711 243.001 281.606 253.331 281.603V281.61ZM263.209 310.797C260.586 308.186 257.039 306.716 253.338 306.706C249.637 306.697 246.082 308.148 243.445 310.744L243.4 310.797C241.443 312.755 240.111 315.25 239.571 317.966C239.032 320.682 239.31 323.497 240.37 326.055C241.43 328.612 243.225 330.799 245.527 332.337C247.829 333.875 250.536 334.696 253.305 334.696C256.074 334.696 258.78 333.875 261.083 332.337C263.385 330.799 265.18 328.612 266.24 326.055C267.3 323.497 267.578 320.682 267.038 317.966C266.499 315.25 265.167 312.755 263.209 310.797Z" />
    <path fill-rule="evenodd" clip-rule="evenodd" d="M177.334 264.817C183.512 264.824 189.434 267.284 193.798 271.657L193.843 271.702C196.083 273.853 197.871 276.43 199.102 279.281C200.334 282.132 200.983 285.201 201.014 288.306C201.044 291.411 200.455 294.492 199.28 297.367C198.105 300.241 196.368 302.853 194.171 305.048C191.974 307.243 189.361 308.977 186.485 310.15C183.609 311.322 180.528 311.909 177.423 311.876C174.318 311.842 171.25 311.189 168.4 309.956C165.55 308.722 162.975 306.932 160.825 304.69L160.781 304.645C157.522 301.377 155.305 297.217 154.409 292.69C153.514 288.162 153.98 283.472 155.749 279.209C157.518 274.947 160.51 271.304 164.348 268.741C168.186 266.178 172.697 264.81 177.312 264.809L177.334 264.817ZM183.202 282.276C181.637 280.727 179.522 279.861 177.321 279.866C175.119 279.872 173.009 280.749 171.452 282.306C169.895 283.863 169.018 285.973 169.012 288.175C169.007 290.377 169.873 292.491 171.422 294.056C172.987 295.605 175.101 296.471 177.303 296.466C179.505 296.46 181.615 295.583 183.172 294.026C184.729 292.469 185.606 290.359 185.612 288.157C185.617 285.955 184.751 283.841 183.202 282.276Z" />
    <path fill-rule="evenodd" clip-rule="evenodd" d="M329.32 264.817C332.379 264.82 335.408 265.426 338.233 266.599C341.058 267.773 343.624 269.492 345.784 271.657L345.829 271.702C348.069 273.853 349.857 276.43 351.088 279.281C352.319 282.132 352.969 285.201 353 288.306C353.03 291.411 352.441 294.492 351.266 297.367C350.091 300.241 348.354 302.853 346.157 305.048C343.96 307.243 341.347 308.977 338.471 310.15C335.595 311.322 332.514 311.909 329.409 311.876C326.303 311.842 323.236 311.189 320.386 309.956C317.536 308.722 314.961 306.932 312.811 304.69L312.766 304.645C309.508 301.377 307.291 297.217 306.395 292.69C305.5 288.162 305.966 283.472 307.735 279.209C309.503 274.947 312.496 271.304 316.334 268.741C320.172 266.178 324.683 264.81 329.298 264.809L329.32 264.817ZM335.195 282.276C333.63 280.727 331.516 279.861 329.314 279.866C327.112 279.872 325.002 280.749 323.445 282.306C321.888 283.863 321.011 285.973 321.005 288.175C321 290.377 321.866 292.491 323.416 294.056C324.98 295.605 327.095 296.471 329.297 296.466C331.498 296.46 333.608 295.583 335.165 294.026C336.722 292.469 337.6 290.359 337.605 288.157C337.611 285.955 336.744 283.841 335.195 282.276Z" />
    <path fill-rule="evenodd" clip-rule="evenodd" d="M253.331 95.3419C290.5 95.3413 326.52 108.229 355.253 131.808C383.985 155.388 403.653 188.201 410.905 224.656C418.157 261.111 412.544 298.953 395.023 331.733C377.502 364.514 349.157 390.206 314.817 404.43C280.477 418.655 242.268 420.532 206.699 409.743C171.13 398.954 140.402 376.165 119.751 345.26C99.1007 314.355 89.8049 277.246 93.4477 240.256C97.0905 203.265 113.447 168.682 139.729 142.399C154.631 127.458 172.338 115.609 191.834 107.533C211.329 99.4575 232.229 95.3144 253.331 95.3419ZM345.649 163.683C324.291 142.32 296.187 129.025 266.124 126.062C236.062 123.098 205.902 130.651 180.784 147.432C155.666 164.212 137.144 189.184 128.373 218.09C119.602 246.997 121.126 278.05 132.685 305.959C144.243 333.869 165.122 356.906 191.762 371.147C218.403 385.388 249.157 389.951 278.784 384.059C308.412 378.167 335.08 362.184 354.244 338.833C373.408 315.482 383.883 286.209 383.884 256.001C383.901 238.858 380.532 221.88 373.969 206.042C367.407 190.204 357.78 175.819 345.642 163.713L345.649 163.683Z" />
    <path fill-rule="evenodd" clip-rule="evenodd" d="M253.339 3.34865e-05C286.699 -0.0171894 319.73 6.60932 350.502 19.4928C381.275 32.3762 409.174 51.2587 432.572 75.0388C480.088 123.285 506.722 188.285 506.722 256.001C506.722 323.718 480.088 388.717 432.572 436.964C409.168 460.729 381.271 479.602 350.504 492.484C319.737 505.366 286.716 512 253.361 512C220.006 512 186.985 505.366 156.218 492.484C125.451 479.602 97.5539 460.729 74.1497 436.964C26.6336 388.717 0 323.718 0 256.001C0 188.285 26.6336 123.285 74.1497 75.0388C97.5424 51.2645 125.434 32.3854 156.199 19.5021C186.964 6.61888 219.985 -0.0108112 253.339 3.34865e-05ZM411.147 96.2101C390.542 75.2761 365.977 58.6507 338.885 47.3026C311.792 35.9544 282.712 30.1101 253.339 30.1101C223.965 30.1101 194.885 35.9544 167.792 47.3026C140.7 58.6507 116.135 75.2761 95.5305 96.2101C53.5998 138.82 30.0997 196.205 30.0997 255.986C30.0997 315.768 53.5998 373.153 95.5305 415.762C116.136 436.696 140.7 453.32 167.793 464.668C194.886 476.015 223.965 481.859 253.339 481.859C282.712 481.859 311.791 476.015 338.884 464.668C365.977 453.32 390.541 436.696 411.147 415.762C453.075 373.152 476.574 315.767 476.574 255.986C476.574 196.206 453.075 138.821 411.147 96.2101Z" />
  </symbol>

  <symbol id="icon-type-2" viewBox="0 0 507 512">
    <path fill-rule="evenodd" clip-rule="evenodd" d="M254.544 211.87C263.582 211.87 272.34 215.003 279.327 220.736C286.313 226.47 291.096 234.448 292.859 243.312C294.623 252.176 293.258 261.378 288.998 269.349C284.738 277.32 277.846 283.566 269.496 287.025C261.146 290.484 251.855 290.941 243.207 288.318C234.558 285.694 227.086 280.154 222.065 272.639C217.043 265.124 214.783 256.101 215.669 247.107C216.554 238.113 220.531 229.703 226.922 223.313C230.544 219.678 234.85 216.796 239.59 214.833C244.331 212.869 249.413 211.862 254.544 211.87ZM264.422 241.056C262.136 238.771 259.129 237.349 255.912 237.032C252.695 236.716 249.467 237.525 246.78 239.321C244.092 241.117 242.111 243.79 241.173 246.884C240.235 249.977 240.399 253.3 241.636 256.286C242.874 259.272 245.108 261.737 247.96 263.261C250.811 264.784 254.102 265.272 257.272 264.64C260.442 264.009 263.296 262.298 265.346 259.799C267.396 257.3 268.517 254.167 268.516 250.935C268.519 249.099 268.158 247.28 267.456 245.583C266.753 243.887 265.722 242.346 264.422 241.049V241.056Z" />
    <path fill-rule="evenodd" clip-rule="evenodd" d="M253.361 2.47955e-05C286.718 -0.0138004 319.744 6.61444 350.513 19.4978C381.281 32.3811 409.177 51.2618 432.572 75.0388C480.087 123.286 506.719 188.285 506.719 256.001C506.719 323.717 480.087 388.716 432.572 436.964C409.168 460.729 381.271 479.602 350.504 492.484C319.737 505.366 286.716 512 253.361 512C220.006 512 186.985 505.366 156.218 492.484C125.451 479.602 97.5539 460.729 74.1497 436.964C26.6336 388.717 0 323.718 0 256.001C0 188.285 26.6336 123.285 74.1497 75.0388C97.546 51.2609 125.443 32.3796 156.213 19.4962C186.983 6.61282 220.003 -0.0147941 253.361 2.47955e-05ZM411.169 96.2101C390.564 75.276 366 58.6507 338.907 47.3025C311.814 35.9544 282.734 30.1101 253.361 30.1101C223.988 30.1101 194.908 35.9544 167.815 47.3025C140.722 58.6507 116.158 75.276 95.553 96.2101C53.6223 138.82 30.1223 196.205 30.1223 255.986C30.1223 315.768 53.6223 373.153 95.553 415.762C116.158 436.696 140.723 453.32 167.815 464.668C194.908 476.015 223.988 481.859 253.361 481.859C282.734 481.859 311.814 476.015 338.907 464.668C365.999 453.32 390.564 436.696 411.169 415.762C453.098 373.152 476.597 315.767 476.597 255.986C476.597 196.206 453.098 138.821 411.169 96.2101Z" />
    <path fill-rule="evenodd" clip-rule="evenodd" d="M206.319 288.181C215.381 288.162 224.17 291.286 231.186 297.022C238.202 302.759 243.011 310.751 244.793 319.636C246.575 328.522 245.219 337.75 240.958 345.748C236.696 353.746 229.792 360.018 221.423 363.494C213.054 366.971 203.738 367.437 195.064 364.812C186.39 362.188 178.895 356.636 173.856 349.103C168.818 341.57 166.549 332.523 167.436 323.504C168.323 314.485 172.31 306.053 178.719 299.646C182.341 296.012 186.647 293.13 191.387 291.166C196.128 289.202 201.21 288.195 206.341 288.203L206.319 288.181ZM216.197 317.367C214.9 316.069 213.359 315.039 211.663 314.337C209.968 313.634 208.15 313.273 206.315 313.273C204.48 313.273 202.662 313.634 200.967 314.337C199.271 315.039 197.73 316.069 196.433 317.367C194.477 319.326 193.145 321.821 192.607 324.537C192.068 327.252 192.347 330.066 193.407 332.624C194.468 335.181 196.262 337.367 198.564 338.904C200.867 340.442 203.573 341.263 206.341 341.263C209.11 341.263 211.816 340.442 214.118 338.904C216.42 337.367 218.215 335.181 219.275 332.624C220.336 330.066 220.614 327.252 220.076 324.537C219.537 321.821 218.206 319.326 216.25 317.367H216.197Z" />
    <path fill-rule="evenodd" clip-rule="evenodd" d="M302.762 288.181C311.822 288.162 320.608 291.287 327.622 297.022C334.636 302.757 339.444 310.748 341.225 319.632C343.006 328.515 341.651 337.742 337.39 345.738C333.129 353.734 326.227 360.004 317.86 363.48C309.492 366.956 300.179 367.421 291.506 364.798C282.834 362.174 275.341 356.624 270.303 349.093C265.266 341.562 262.997 332.517 263.883 323.5C264.769 314.483 268.755 306.052 275.162 299.646C278.784 296.012 283.09 293.13 287.83 291.166C292.571 289.202 297.653 288.195 302.784 288.203L302.762 288.181ZM312.64 317.367C311.343 316.069 309.803 315.04 308.108 314.337C306.413 313.635 304.596 313.273 302.762 313.273C300.927 313.273 299.11 313.635 297.415 314.337C295.72 315.04 294.18 316.069 292.883 317.367C290.926 319.326 289.593 321.821 289.054 324.537C288.515 327.252 288.793 330.067 289.853 332.625C290.913 335.183 292.707 337.369 295.01 338.907C297.312 340.445 300.019 341.266 302.788 341.266C305.557 341.266 308.263 340.445 310.566 338.907C312.868 337.369 314.663 335.183 315.723 332.625C316.783 330.067 317.061 327.252 316.521 324.537C315.982 321.821 314.649 319.326 312.692 317.367H312.64Z" />
    <path fill-rule="evenodd" clip-rule="evenodd" d="M163.572 211.87C172.637 211.846 181.429 214.968 188.449 220.702C195.469 226.437 200.282 234.429 202.068 243.316C203.854 252.203 202.502 261.434 198.242 269.436C193.982 277.437 187.079 283.713 178.709 287.193C170.339 290.673 161.021 291.142 152.344 288.519C143.667 285.897 136.169 280.346 131.127 272.812C126.086 265.279 123.814 256.23 124.699 247.209C125.584 238.188 129.571 229.752 135.98 223.342C139.601 219.709 143.906 216.828 148.645 214.864C153.384 212.9 158.465 211.893 163.595 211.9L163.572 211.87ZM173.458 241.056C170.836 238.438 167.281 236.968 163.576 236.968C159.87 236.968 156.316 238.438 153.694 241.056C151.74 243.015 150.411 245.509 149.874 248.222C149.337 250.936 149.616 253.748 150.676 256.303C151.737 258.858 153.53 261.041 155.831 262.577C158.132 264.114 160.836 264.933 163.602 264.933C166.368 264.933 169.073 264.114 171.373 262.577C173.674 261.041 175.468 258.858 176.528 256.303C177.588 253.748 177.867 250.936 177.33 248.222C176.793 245.509 175.464 243.015 173.51 241.056H173.458Z" />  
    <path fill-rule="evenodd" clip-rule="evenodd" d="M345.508 211.87C354.548 211.867 363.309 214.999 370.299 220.733C377.289 226.466 382.074 234.445 383.84 243.311C385.605 252.177 384.242 261.381 379.981 269.355C375.721 277.328 368.828 283.578 360.477 287.038C352.125 290.499 342.832 290.957 334.181 288.333C325.53 285.71 318.056 280.167 313.033 272.651C308.01 265.134 305.75 256.109 306.636 247.112C307.522 238.116 311.5 229.705 317.893 223.313C321.514 219.679 325.819 216.798 330.558 214.834C335.297 212.871 340.378 211.863 345.508 211.87ZM355.394 241.056C353.108 238.765 350.097 237.338 346.877 237.018C343.656 236.697 340.424 237.504 337.731 239.3C335.038 241.096 333.052 243.771 332.111 246.867C331.169 249.964 331.331 253.291 332.568 256.282C333.805 259.273 336.041 261.742 338.895 263.269C341.749 264.796 345.044 265.286 348.219 264.655C351.393 264.024 354.251 262.312 356.304 259.81C358.358 257.308 359.48 254.171 359.48 250.935C359.482 249.099 359.121 247.28 358.418 245.584C357.716 243.887 356.686 242.346 355.386 241.049L355.394 241.056Z" />
    <path fill-rule="evenodd" clip-rule="evenodd" d="M206.169 162.291C212.348 162.3 218.27 164.763 222.633 169.138L222.678 169.183C224.844 171.351 226.562 173.924 227.734 176.756C228.905 179.588 229.507 182.623 229.506 185.688C229.505 188.752 228.9 191.787 227.726 194.617C226.552 197.448 224.831 200.02 222.663 202.186C220.495 204.352 217.922 206.07 215.09 207.241C212.258 208.413 209.223 209.015 206.159 209.014C203.094 209.012 200.06 208.407 197.229 207.233C194.398 206.059 191.826 204.339 189.66 202.171L189.615 202.126C187.449 199.961 185.73 197.389 184.557 194.559C183.384 191.729 182.781 188.696 182.781 185.632C182.781 182.569 183.384 179.535 184.557 176.705C185.73 173.875 187.449 171.304 189.615 169.138L190.102 168.689C194.428 164.581 200.166 162.29 206.132 162.291H206.169ZM212.044 179.75C210.521 178.254 208.485 177.395 206.351 177.347C204.216 177.3 202.144 178.068 200.557 179.496L200.287 179.78C198.738 181.343 197.869 183.454 197.869 185.655C197.869 187.855 198.738 189.967 200.287 191.529C201.852 193.078 203.966 193.945 206.168 193.939C208.37 193.934 210.48 193.057 212.037 191.5C213.594 189.943 214.471 187.833 214.477 185.631C214.482 183.429 213.616 181.315 212.066 179.75H212.044Z" />
    <path fill-rule="evenodd" clip-rule="evenodd" d="M302.911 162.291C305.97 162.295 308.999 162.902 311.824 164.077C314.649 165.252 317.215 166.972 319.375 169.138L319.42 169.183C321.586 171.351 323.304 173.924 324.475 176.756C325.647 179.588 326.249 182.623 326.247 185.688C326.246 188.752 325.641 191.787 324.467 194.617C323.293 197.448 321.573 200.02 319.405 202.186C317.237 204.352 314.663 206.07 311.831 207.241C309 208.413 305.965 209.015 302.9 209.014C299.836 209.012 296.801 208.407 293.97 207.233C291.14 206.059 288.568 204.339 286.402 202.171L286.357 202.126C284.19 199.961 282.471 197.389 281.298 194.559C280.126 191.729 279.522 188.696 279.522 185.632C279.522 182.569 280.126 179.535 281.298 176.705C282.471 173.875 284.19 171.304 286.357 169.138L286.843 168.689C291.169 164.581 296.907 162.29 302.873 162.291H302.911ZM308.785 179.75C307.262 178.254 305.226 177.395 303.092 177.347C300.958 177.3 298.886 178.068 297.298 179.496L297.029 179.78C295.479 181.343 294.61 183.454 294.61 185.655C294.61 187.855 295.479 189.967 297.029 191.529C298.593 193.078 300.708 193.945 302.91 193.939C305.111 193.934 307.222 193.057 308.778 191.5C310.335 189.943 311.213 187.833 311.218 185.631C311.224 183.429 310.357 181.315 308.808 179.75H308.785Z" />
    <path fill-rule="evenodd" clip-rule="evenodd" d="M365.879 117.591C394.087 140.807 414.424 172.18 424.1 207.409C433.776 242.638 432.318 279.997 419.926 314.365C407.534 348.733 384.815 378.426 354.883 399.373C324.951 420.321 289.272 431.496 252.739 431.368C216.206 431.24 180.606 419.814 150.822 398.658C121.038 377.501 98.5272 347.649 86.3765 313.196C74.2258 278.742 73.0299 241.373 82.953 206.213C92.8761 171.053 113.432 139.823 141.803 116.805C144.477 114.628 147.821 113.441 151.27 113.445V113.392H355.447C359.336 113.388 363.076 114.893 365.879 117.591ZM386.04 191.08C377.398 172.935 365.141 156.746 350.021 143.507H156.688C136.137 161.494 121.012 184.858 113.012 210.971C105.012 237.084 104.455 264.91 111.403 291.323C118.351 317.735 132.529 341.685 152.342 360.481C172.156 379.277 196.82 392.174 223.562 397.721C250.303 403.268 278.062 401.246 303.717 391.881C329.372 382.517 351.907 366.182 368.787 344.712C385.667 323.243 396.224 297.491 399.27 270.35C402.317 243.21 397.732 215.758 386.032 191.08H386.04Z" />
  </symbol>

  <symbol id="icon-css-combo" viewBox="0 0 507 512">
    <path fill-rule="evenodd" clip-rule="evenodd" d="M254.304 152.682C258.413 152.681 262.481 153.49 266.276 155.065C270.071 156.639 273.517 158.947 276.418 161.857C279.377 164.755 281.732 168.212 283.346 172.026C284.961 175.84 285.803 179.937 285.824 184.079C285.845 188.221 285.045 192.326 283.47 196.156C281.895 199.987 279.576 203.467 276.647 206.396C273.718 209.325 270.238 211.644 266.407 213.219C262.576 214.795 258.471 215.595 254.33 215.573C250.188 215.552 246.091 214.71 242.277 213.095C238.462 211.481 235.006 209.126 232.107 206.168C231.89 205.951 231.688 205.726 231.494 205.494C225.889 199.582 222.817 191.715 222.931 183.569C223.046 175.424 226.339 167.646 232.107 161.894L232.145 161.857C235.045 158.947 238.492 156.638 242.287 155.064C246.082 153.489 250.15 152.68 254.259 152.682H254.304ZM262.252 176.068C260.195 173.913 257.367 172.662 254.389 172.592C251.411 172.522 248.527 173.638 246.371 175.694C244.216 177.75 242.965 180.579 242.895 183.557C242.825 186.535 243.941 189.419 245.997 191.574L246.386 191.941C248.525 193.853 251.314 194.873 254.182 194.793C257.049 194.713 259.777 193.538 261.805 191.51C263.834 189.481 265.008 186.753 265.089 183.886C265.169 181.019 264.148 178.229 262.237 176.091L262.252 176.068Z" />
    <path fill-rule="evenodd" clip-rule="evenodd" d="M215.636 213.951C222.887 213.949 229.914 216.462 235.52 221.061C241.126 225.661 244.964 232.061 246.38 239.173C247.796 246.284 246.702 253.667 243.285 260.062C239.867 266.458 234.338 271.47 227.64 274.246C220.941 277.022 213.487 277.39 206.548 275.286C199.609 273.182 193.614 268.737 189.584 262.708C185.555 256.68 183.741 249.44 184.45 242.224C185.16 235.008 188.35 228.261 193.477 223.133C196.383 220.218 199.837 217.907 203.64 216.331C207.443 214.755 211.52 213.946 215.636 213.951ZM223.561 237.36C221.725 235.522 219.308 234.378 216.723 234.123C214.138 233.868 211.545 234.518 209.385 235.961C207.225 237.404 205.632 239.551 204.878 242.037C204.125 244.523 204.256 247.194 205.251 249.593C206.246 251.993 208.042 253.973 210.334 255.197C212.625 256.42 215.27 256.811 217.818 256.303C220.365 255.795 222.657 254.419 224.304 252.41C225.95 250.4 226.849 247.882 226.847 245.285C226.847 243.807 226.556 242.343 225.99 240.978C225.423 239.613 224.593 238.373 223.546 237.33L223.561 237.36Z" />
    <path fill-rule="evenodd" clip-rule="evenodd" d="M292.98 213.95C298.132 213.95 303.206 215.221 307.751 217.649C312.295 220.078 316.171 223.59 319.034 227.874C321.897 232.158 323.659 237.083 324.165 242.211C324.67 247.339 323.903 252.512 321.932 257.273C319.961 262.034 316.845 266.235 312.862 269.504C308.88 272.774 304.152 275.01 299.098 276.016C294.044 277.022 288.821 276.766 283.89 275.27C278.958 273.775 274.472 271.087 270.828 267.444C270.611 267.227 270.409 267.002 270.214 266.77C264.611 260.85 261.54 252.977 261.655 244.827C261.769 236.677 265.06 228.893 270.828 223.133C271.045 222.909 271.277 222.699 271.516 222.504C277.314 217.014 284.995 213.953 292.98 213.95ZM300.905 237.36C298.866 235.329 296.127 234.156 293.251 234.08C290.374 234.005 287.578 235.034 285.436 236.955L285.054 237.36C283.021 239.402 281.848 242.146 281.775 245.028C281.703 247.909 282.737 250.708 284.665 252.851L285.054 253.217C287.191 255.144 289.986 256.176 292.862 256.101C295.738 256.026 298.476 254.85 300.51 252.815C302.544 250.78 303.719 248.042 303.792 245.166C303.866 242.29 302.832 239.496 300.905 237.36Z" />
    <path fill-rule="evenodd" clip-rule="evenodd" d="M181.338 152.682C185.447 152.681 189.515 153.49 193.31 155.065C197.105 156.639 200.552 158.947 203.452 161.857C206.362 164.761 208.67 168.212 210.245 172.009C211.82 175.807 212.631 179.878 212.631 183.99C212.631 188.101 211.82 192.172 210.245 195.97C208.67 199.768 206.362 203.218 203.452 206.123L203.393 206.19C200.488 209.095 197.039 211.4 193.243 212.973C189.448 214.545 185.379 215.354 181.271 215.354C177.162 215.354 173.094 214.545 169.298 212.973C165.503 211.4 162.054 209.095 159.149 206.19C158.932 205.973 158.73 205.756 158.536 205.524C152.933 199.611 149.862 191.744 149.976 183.599C150.091 175.455 153.382 167.677 159.149 161.924L159.186 161.887C162.087 158.976 165.533 156.667 169.328 155.093C173.123 153.518 177.192 152.709 181.301 152.712L181.338 152.682ZM189.286 176.068C187.23 173.913 184.401 172.662 181.423 172.592C178.445 172.522 175.561 173.638 173.406 175.694C171.25 177.75 170 180.579 169.93 183.557C169.859 186.535 170.975 189.419 173.031 191.574L173.42 191.941C175.52 194.044 178.367 195.228 181.338 195.235C184.309 195.242 187.162 194.071 189.271 191.979L189.308 191.941C191.401 189.832 192.572 186.979 192.565 184.008C192.558 181.037 191.374 178.19 189.271 176.091L189.286 176.068Z" />
    <path fill-rule="evenodd" clip-rule="evenodd" d="M327.27 152.682C331.378 152.681 335.447 153.49 339.242 155.065C343.036 156.639 346.483 158.947 349.384 161.857L349.422 161.894C352.33 164.796 354.638 168.243 356.212 172.037C357.787 175.832 358.597 179.9 358.597 184.009C358.597 188.117 357.787 192.185 356.212 195.979C354.638 199.774 352.33 203.221 349.422 206.123C346.516 209.035 343.064 211.345 339.264 212.922C335.465 214.498 331.391 215.31 327.277 215.31C323.163 215.31 319.09 214.498 315.29 212.922C311.49 211.345 308.039 209.035 305.133 206.123C302.221 203.217 299.91 199.765 298.334 195.966C296.758 192.166 295.946 188.092 295.946 183.979C295.946 179.865 296.758 175.791 298.334 171.991C299.91 168.192 302.221 164.74 305.133 161.834C308.039 158.921 311.492 156.611 315.293 155.036C319.095 153.462 323.17 152.654 327.285 152.66L327.27 152.682ZM335.217 176.068C333.112 173.964 330.258 172.782 327.281 172.782C324.304 172.782 321.45 173.964 319.345 176.068C317.253 178.178 316.083 181.032 316.092 184.003C316.1 186.974 317.286 189.821 319.39 191.919C321.499 194.011 324.351 195.183 327.323 195.176C330.294 195.169 333.141 193.984 335.24 191.881C337.329 189.765 338.5 186.911 338.5 183.937C338.5 180.964 337.329 178.11 335.24 175.993L335.217 176.068Z" />
    <path fill-rule="evenodd" clip-rule="evenodd" d="M215.509 112.906C219.218 112.897 222.846 113.99 225.933 116.047C229.019 118.104 231.425 121.032 232.844 124.459C234.262 127.886 234.63 131.657 233.901 135.294C233.172 138.931 231.378 142.269 228.747 144.884C227.009 146.624 224.946 148.005 222.674 148.947C220.402 149.889 217.967 150.375 215.508 150.376C213.049 150.378 210.613 149.895 208.341 148.955C206.068 148.015 204.003 146.637 202.263 144.899C200.523 143.161 199.142 141.097 198.2 138.825C197.257 136.554 196.771 134.119 196.77 131.66C196.769 129.2 197.252 126.765 198.192 124.492C199.131 122.22 200.51 120.154 202.248 118.414C203.987 116.673 206.054 115.292 208.328 114.351C210.602 113.409 213.04 112.926 215.501 112.929L215.509 112.906ZM220.223 126.938C219.605 126.319 218.871 125.828 218.062 125.493C217.254 125.158 216.388 124.986 215.513 124.986C214.638 124.986 213.771 125.158 212.963 125.493C212.154 125.828 211.42 126.319 210.801 126.938C209.606 128.201 208.951 129.88 208.975 131.618C208.999 133.357 209.7 135.017 210.93 136.247C212.159 137.476 213.82 138.177 215.558 138.201C217.296 138.225 218.976 137.57 220.239 136.375C221.481 135.122 222.178 133.429 222.178 131.664C222.178 129.899 221.481 128.206 220.239 126.953L220.223 126.938Z" />
    <path fill-rule="evenodd" clip-rule="evenodd" d="M293.114 112.906C296.824 112.897 300.452 113.99 303.538 116.047C306.625 118.104 309.031 121.032 310.449 124.459C311.868 127.886 312.236 131.657 311.507 135.294C310.777 138.931 308.983 142.269 306.353 144.884C304.615 146.627 302.55 148.011 300.276 148.954C298.003 149.898 295.565 150.384 293.103 150.384C290.641 150.384 288.204 149.898 285.93 148.954C283.656 148.011 281.591 146.627 279.853 144.884L279.494 144.495C276.141 140.955 274.302 136.246 274.369 131.37C274.436 126.494 276.404 121.838 279.853 118.392L280.242 118.032C283.711 114.736 288.314 112.898 293.099 112.899L293.114 112.906ZM297.829 126.938C296.614 125.729 294.981 125.032 293.268 124.99C291.554 124.948 289.889 125.565 288.617 126.714L288.4 126.938C287.199 128.158 286.507 129.789 286.465 131.5C286.424 133.211 287.035 134.874 288.175 136.15L288.4 136.36C289.018 136.979 289.752 137.47 290.561 137.805C291.369 138.14 292.236 138.312 293.11 138.312C293.985 138.312 294.852 138.14 295.66 137.805C296.469 137.47 297.203 136.979 297.822 136.36C299.053 135.101 299.743 133.41 299.743 131.649C299.743 129.888 299.053 128.197 297.822 126.938H297.829Z" />
    <path fill-rule="evenodd" clip-rule="evenodd" d="M343.622 77.0668C366.246 95.6882 382.556 120.852 390.316 149.108C398.076 177.363 396.906 207.328 386.967 234.892C377.027 262.457 358.805 286.273 334.798 303.073C310.791 319.874 282.174 328.838 252.873 328.735C223.571 328.633 195.018 319.469 171.129 302.501C147.24 285.532 129.185 261.59 119.438 233.957C109.692 206.323 108.732 176.351 116.689 148.151C124.647 119.95 141.133 94.901 163.886 76.4383C166.031 74.6895 168.715 73.7374 171.482 73.744V73.7068H335.262C338.382 73.7031 341.382 74.9103 343.629 77.0743L343.622 77.0668ZM359.794 136.016C352.863 121.458 343.03 108.47 330.899 97.849H175.83C159.344 112.277 147.209 131.018 140.791 151.965C134.372 172.911 133.923 195.233 139.496 216.421C145.068 237.608 156.44 256.822 172.334 271.9C188.227 286.979 208.012 297.325 229.463 301.775C250.914 306.226 273.182 304.604 293.762 297.093C314.342 289.581 332.419 276.478 345.96 259.256C359.501 242.034 367.97 221.376 370.414 199.604C372.857 177.833 369.18 155.811 359.794 136.016Z" />
    <path fill-rule="evenodd" clip-rule="evenodd" d="M294.783 338.082C298.892 338.079 302.961 338.888 306.756 340.463C310.551 342.037 313.997 344.346 316.897 347.257C319.856 350.156 322.211 353.612 323.825 357.426C325.44 361.241 326.282 365.337 326.303 369.479C326.324 373.621 325.524 377.726 323.949 381.557C322.374 385.387 320.055 388.868 317.126 391.796C314.197 394.725 310.717 397.044 306.886 398.62C303.055 400.195 298.95 400.995 294.809 400.974C290.667 400.952 286.57 400.11 282.756 398.496C278.942 396.881 275.485 394.527 272.587 391.568C272.37 391.351 272.168 391.126 271.973 390.894C266.369 384.983 263.296 377.115 263.411 368.97C263.525 360.824 266.818 353.046 272.587 347.295L272.624 347.257C275.524 344.347 278.971 342.038 282.766 340.463C286.561 338.889 290.63 338.08 294.738 338.082H294.783ZM302.723 361.469C300.667 359.313 297.839 358.063 294.861 357.993C291.883 357.922 288.999 359.038 286.843 361.094C284.688 363.151 283.437 365.979 283.367 368.957C283.297 371.935 284.412 374.819 286.469 376.975L286.858 377.341C287.876 378.48 289.115 379.399 290.5 380.042C291.885 380.685 293.387 381.038 294.913 381.081C296.439 381.124 297.959 380.855 299.377 380.29C300.796 379.726 302.085 378.877 303.165 377.798C304.244 376.718 305.092 375.429 305.657 374.01C306.222 372.592 306.491 371.073 306.448 369.546C306.405 368.02 306.052 366.518 305.409 365.133C304.766 363.748 303.847 362.509 302.708 361.491L302.723 361.469Z" />
    <path fill-rule="evenodd" clip-rule="evenodd" d="M211.55 338.082C215.659 338.08 219.727 338.889 223.522 340.463C227.317 342.038 230.764 344.347 233.664 347.257C236.573 350.162 238.881 353.613 240.455 357.41C242.029 361.208 242.84 365.279 242.84 369.39C242.84 373.501 242.029 377.572 240.455 381.37C238.881 385.168 236.573 388.618 233.664 391.523L233.597 391.59C230.692 394.496 227.243 396.801 223.447 398.373C219.652 399.945 215.583 400.755 211.475 400.755C207.366 400.755 203.298 399.945 199.503 398.373C195.707 396.801 192.258 394.496 189.353 391.59C189.136 391.373 188.934 391.149 188.74 390.924C183.137 385.012 180.066 377.144 180.18 369C180.295 360.855 183.586 353.077 189.353 347.325L189.391 347.287C192.291 344.377 195.737 342.068 199.533 340.493C203.328 338.919 207.396 338.109 211.505 338.112L211.55 338.082ZM219.497 361.469C217.441 359.313 214.613 358.063 211.635 357.993C208.657 357.922 205.773 359.038 203.617 361.094C201.462 363.151 200.211 365.979 200.141 368.957C200.071 371.935 201.187 374.819 203.243 376.975L203.632 377.341C205.731 379.444 208.578 380.629 211.55 380.636C214.521 380.643 217.373 379.471 219.482 377.379L219.52 377.341C221.613 375.232 222.784 372.38 222.777 369.409C222.77 366.437 221.585 363.59 219.482 361.491L219.497 361.469Z" />
    <path fill-rule="evenodd" clip-rule="evenodd" d="M200.003 305.678H311.936C328.72 305.86 344.754 312.655 356.559 324.587C368.363 336.52 374.984 352.628 374.984 369.412C374.984 386.197 368.363 402.305 356.559 414.237C344.754 426.17 328.72 432.965 311.936 433.147H200.003C183.219 432.965 167.184 426.17 155.38 414.237C143.576 402.305 136.955 386.197 136.955 369.412C136.955 352.628 143.576 336.52 155.38 324.587C167.184 312.655 183.219 305.86 200.003 305.678ZM311.936 329.768H200.003C189.483 329.768 179.395 333.947 171.956 341.385C164.518 348.823 160.339 358.912 160.339 369.431C160.339 379.951 164.518 390.039 171.956 397.478C179.395 404.916 189.483 409.095 200.003 409.095H311.936C322.455 409.095 332.544 404.916 339.982 397.478C347.42 390.039 351.599 379.951 351.599 369.431C351.599 358.912 347.42 348.823 339.982 341.385C332.544 333.947 322.455 329.768 311.936 329.768Z" />
    <path fill-rule="evenodd" clip-rule="evenodd" d="M253.369 2.47955e-05C286.725 -0.0136398 319.749 6.61465 350.517 19.498C381.284 32.3814 409.178 51.262 432.572 75.0388C480.088 123.285 506.722 188.285 506.722 256.001C506.722 323.718 480.088 388.717 432.572 436.964C409.168 460.729 381.271 479.602 350.504 492.484C319.738 505.366 286.716 512 253.361 512C220.006 512 186.985 505.366 156.218 492.484C125.451 479.602 97.5541 460.729 74.1499 436.964C26.6339 388.717 0 323.718 0 256.001C0 188.285 26.6339 123.285 74.1499 75.0388C97.5462 51.2609 125.443 32.3796 156.213 19.4962C186.983 6.61282 220.01 -0.0147941 253.369 2.47955e-05ZM411.177 96.2101C390.572 75.276 366.007 58.6507 338.915 47.3025C311.822 35.9544 282.742 30.1101 253.369 30.1101C223.995 30.1101 194.915 35.9544 167.822 47.3025C140.73 58.6507 116.166 75.276 95.5606 96.2101C53.63 138.82 30.1297 196.205 30.1297 255.986C30.1297 315.768 53.63 373.153 95.5606 415.762C116.166 436.696 140.73 453.32 167.823 464.668C194.916 476.015 223.996 481.859 253.369 481.859C282.742 481.859 311.822 476.015 338.914 464.668C366.007 453.32 390.571 436.696 411.177 415.762C453.105 373.152 476.604 315.767 476.604 255.986C476.604 196.206 453.105 138.821 411.177 96.2101Z" />
  </symbol>

  <symbol id="icon-type-1" viewBox="0 0 507 512">
    <path fill-rule="evenodd" clip-rule="evenodd" d="M253.327 82.1108C293.559 82.109 332.548 96.0574 363.649 121.579C394.75 147.101 416.04 182.618 423.89 222.077C431.74 261.536 425.666 302.496 406.701 337.979C387.737 373.461 357.056 401.27 319.887 416.668C282.717 432.065 241.358 434.098 202.858 422.42C164.358 410.741 131.098 386.075 108.745 352.623C86.3928 319.171 76.3309 279.004 80.274 238.965C84.2172 198.926 101.922 161.493 130.37 133.045C146.499 116.873 165.664 104.048 186.765 95.3068C207.866 86.5659 230.487 82.0813 253.327 82.1108ZM355 154.328C331.476 130.8 300.521 116.156 267.411 112.893C234.3 109.629 201.082 117.947 173.417 136.43C145.752 154.912 125.352 182.416 115.692 214.254C106.033 246.092 107.712 280.294 120.443 311.033C133.174 341.772 156.17 367.145 185.512 382.83C214.855 398.514 248.727 403.539 281.359 397.048C313.991 390.557 343.362 372.952 364.469 347.233C385.576 321.514 397.111 289.272 397.11 256.001C397.134 237.115 393.425 218.41 386.197 200.962C378.969 183.513 368.365 167.665 354.992 154.328H355Z" />
    <path fill-rule="evenodd" clip-rule="evenodd" d="M253.364 2.1583e-05C286.721 -0.0138036 319.747 6.61444 350.516 19.4978C381.284 32.3811 409.18 51.2618 432.575 75.0388C480.091 123.285 506.725 188.285 506.725 256.001C506.725 323.718 480.091 388.717 432.575 436.964C409.171 460.729 381.274 479.602 350.507 492.484C319.74 505.366 286.719 512 253.364 512C220.009 512 186.988 505.366 156.221 492.484C125.454 479.602 97.5571 460.729 74.1529 436.964C26.635 388.718 0 323.718 0 256.001C0 188.284 26.635 123.284 74.1529 75.0388C97.5485 51.2621 125.444 32.3816 156.213 19.4982C186.981 6.61492 220.007 -0.0133872 253.364 2.1583e-05ZM411.172 96.2101C390.567 75.276 366.003 58.6507 338.91 47.3025C311.817 35.9544 282.738 30.1101 253.364 30.1101C223.991 30.1101 194.911 35.9544 167.818 47.3025C140.725 58.6507 116.161 75.276 95.556 96.2101C53.6272 138.821 30.1283 196.206 30.1283 255.986C30.1283 315.767 53.6272 373.152 95.556 415.762C116.161 436.696 140.726 453.32 167.819 464.668C194.911 476.015 223.991 481.859 253.364 481.859C282.737 481.859 311.817 476.015 338.91 464.668C366.002 453.32 390.567 436.696 411.172 415.762C453.101 373.152 476.6 315.767 476.6 255.986C476.6 196.206 453.101 138.821 411.172 96.2101Z" />
    <path fill-rule="evenodd" clip-rule="evenodd" d="M176.589 216.952C185.653 216.93 194.445 220.053 201.463 225.788C208.482 231.524 213.294 239.517 215.079 248.403C216.863 257.29 215.51 266.521 211.249 274.521C206.989 282.522 200.085 288.797 191.715 292.276C183.345 295.755 174.027 296.223 165.351 293.6C156.675 290.977 149.177 285.426 144.136 277.892C139.095 270.359 136.823 261.31 137.708 252.29C138.594 243.269 142.581 234.834 148.989 228.424C152.612 224.79 156.917 221.908 161.658 219.944C166.398 217.981 171.48 216.974 176.611 216.982L176.589 216.952ZM186.468 246.138C183.845 243.52 180.291 242.049 176.585 242.049C172.88 242.049 169.325 243.52 166.703 246.138C164.747 248.097 163.416 250.592 162.877 253.307C162.339 256.023 162.617 258.837 163.677 261.395C164.738 263.952 166.533 266.137 168.835 267.675C171.137 269.212 173.843 270.033 176.611 270.033C179.38 270.033 182.086 269.212 184.388 267.675C186.691 266.137 188.485 263.952 189.545 261.395C190.606 258.837 190.885 256.023 190.346 253.307C189.807 250.592 188.476 248.097 186.52 246.138H186.468Z" />
    <path fill-rule="evenodd" clip-rule="evenodd" d="M330.072 216.952C339.112 216.949 347.873 220.081 354.863 225.814C361.853 231.547 366.638 239.527 368.404 248.393C370.169 257.259 368.806 266.463 364.545 274.436C360.285 282.41 353.392 288.659 345.041 292.12C336.689 295.58 327.396 296.038 318.745 293.414C310.094 290.791 302.62 285.249 297.597 277.732C292.574 270.216 290.314 261.19 291.2 252.194C292.086 243.197 296.064 234.786 302.457 228.394C306.078 224.761 310.383 221.879 315.122 219.916C319.861 217.952 324.942 216.945 330.072 216.952ZM339.958 246.138C337.671 243.847 334.661 242.42 331.441 242.099C328.22 241.779 324.988 242.586 322.295 244.382C319.602 246.178 317.616 248.852 316.675 251.949C315.733 255.045 315.895 258.373 317.132 261.364C318.369 264.355 320.605 266.824 323.459 268.351C326.313 269.877 329.608 270.367 332.783 269.736C335.957 269.106 338.815 267.393 340.868 264.891C342.922 262.39 344.044 259.253 344.044 256.016C344.045 254.181 343.683 252.364 342.981 250.669C342.279 248.974 341.249 247.434 339.95 246.138H339.958Z" />
    <path fill-rule="evenodd" clip-rule="evenodd" d="M260.441 151.051C280.83 155.848 293.471 176.266 288.674 196.656C283.877 217.046 263.459 229.686 243.069 224.889C222.679 220.092 210.038 199.674 214.835 179.284C219.633 158.894 240.051 146.253 260.441 151.051ZM243.325 164.451C242.21 166.12 241.615 168.082 241.615 170.089C241.615 172.78 242.684 175.361 244.587 177.265C246.49 179.168 249.071 180.237 251.763 180.237C253.77 180.237 255.731 179.641 257.4 178.526C259.069 177.411 260.37 175.826 261.138 173.972C261.906 172.118 262.107 170.078 261.715 168.109C261.324 166.141 260.357 164.332 258.938 162.913C257.519 161.494 255.711 160.528 253.742 160.136C251.774 159.744 249.734 159.945 247.879 160.713C246.025 161.481 244.44 162.782 243.325 164.451ZM275.271 196.405C273.603 197.52 271.641 198.115 269.634 198.115C266.943 198.111 264.365 197.041 262.462 195.139C260.56 193.236 259.49 190.657 259.486 187.967C259.486 185.96 260.081 183.998 261.196 182.329C262.311 180.661 263.896 179.36 265.75 178.592C267.604 177.824 269.645 177.623 271.613 178.014C273.582 178.406 275.39 179.373 276.809 180.792C278.228 182.211 279.195 184.019 279.586 185.987C279.978 187.956 279.777 189.996 279.009 191.851C278.241 193.705 276.94 195.29 275.271 196.405ZM243.325 200.215C242.21 201.884 241.615 203.846 241.615 205.853C241.614 207.186 241.876 208.506 242.385 209.738C242.895 210.969 243.642 212.089 244.585 213.031C245.527 213.974 246.646 214.721 247.878 215.231C249.11 215.74 250.43 216.002 251.763 216.001C253.77 216.001 255.731 215.406 257.4 214.291C259.069 213.176 260.37 211.591 261.138 209.737C261.906 207.882 262.107 205.842 261.715 203.873C261.324 201.905 260.357 200.097 258.938 198.678C257.519 197.258 255.711 196.292 253.742 195.9C251.774 195.509 249.734 195.71 247.879 196.478C246.025 197.246 244.44 198.547 243.325 200.215ZM239.507 196.405C237.838 197.52 235.876 198.115 233.869 198.115C231.18 198.109 228.602 197.038 226.7 195.136C224.798 193.234 223.727 190.657 223.721 187.967C223.721 185.96 224.317 183.998 225.432 182.329C226.547 180.661 228.131 179.36 229.986 178.592C231.84 177.824 233.88 177.623 235.849 178.014C237.817 178.406 239.626 179.373 241.045 180.792C242.464 182.211 243.43 184.019 243.822 185.987C244.213 187.956 244.013 189.996 243.245 191.851C242.477 193.705 241.176 195.29 239.507 196.405Z" />
    <path fill-rule="evenodd" clip-rule="evenodd" d="M289.682 324.035C289.682 344.982 272.702 361.962 251.755 361.962C230.808 361.962 213.828 344.982 213.828 324.035C213.828 303.089 230.808 286.108 251.755 286.108C272.702 286.108 289.682 303.089 289.682 324.035ZM243.325 300.519C242.21 302.188 241.615 304.15 241.615 306.157C241.614 307.49 241.876 308.81 242.385 310.041C242.895 311.273 243.642 312.392 244.585 313.335C245.527 314.277 246.646 315.025 247.878 315.534C249.11 316.044 250.43 316.305 251.763 316.305C253.77 316.305 255.731 315.709 257.4 314.594C259.069 313.479 260.37 311.894 261.138 310.04C261.906 308.186 262.107 306.145 261.715 304.177C261.324 302.208 260.357 300.4 258.938 298.981C257.519 297.562 255.711 296.595 253.742 296.204C251.774 295.812 249.734 296.013 247.879 296.781C246.025 297.549 244.44 298.85 243.325 300.519ZM275.271 332.466C273.603 333.581 271.641 334.176 269.634 334.176C266.943 334.172 264.365 333.101 262.462 331.199C260.56 329.297 259.49 326.718 259.486 324.028C259.486 322.021 260.081 320.059 261.196 318.39C262.311 316.721 263.896 315.42 265.75 314.652C267.604 313.884 269.645 313.683 271.613 314.075C273.582 314.466 275.39 315.433 276.809 316.852C278.228 318.271 279.195 320.08 279.586 322.048C279.978 324.017 279.777 326.057 279.009 327.911C278.241 329.766 276.94 331.35 275.271 332.466ZM243.344 336.285C242.224 337.949 241.622 339.908 241.615 341.914C241.61 343.249 241.868 344.572 242.376 345.807C242.883 347.042 243.629 348.165 244.571 349.111C245.513 350.057 246.633 350.808 247.865 351.321C249.098 351.834 250.42 352.098 251.755 352.099C253.761 352.1 255.722 351.508 257.391 350.395C259.06 349.283 260.362 347.7 261.132 345.848C261.902 343.996 262.107 341.958 261.719 339.99C261.331 338.022 260.369 336.213 258.954 334.791C257.539 333.37 255.734 332.4 253.768 332.003C251.802 331.607 249.762 331.802 247.907 332.565C246.051 333.327 244.463 334.621 243.344 336.285ZM239.507 332.466C237.838 333.581 235.876 334.176 233.869 334.176C231.18 334.17 228.602 333.099 226.7 331.197C224.798 329.295 223.727 326.717 223.721 324.028C223.721 322.021 224.317 320.059 225.432 318.39C226.547 316.721 228.131 315.42 229.986 314.652C231.84 313.884 233.88 313.683 235.849 314.075C237.817 314.466 239.626 315.433 241.045 316.852C242.464 318.271 243.43 320.08 243.822 322.048C244.213 324.017 244.013 326.057 243.245 327.911C242.477 329.766 241.176 331.35 239.507 332.466Z" />
  </symbol>

  <symbol id="icon-arrow-right" viewBox="0 0 526 512">
    <path d="M223.229 477.703L249.262 503.735C251.867 506.354 254.964 508.433 258.375 509.851C261.787 511.27 265.444 512 269.139 512C272.833 512 276.491 511.27 279.902 509.851C283.314 508.433 286.411 506.354 289.016 503.735L516.907 275.943C519.526 273.338 521.605 270.24 523.023 266.829C524.442 263.418 525.172 259.76 525.172 256.066C525.172 252.371 524.442 248.713 523.023 245.302C521.605 241.891 519.526 238.794 516.907 236.188L288.885 8.26493C286.28 5.64557 283.182 3.56695 279.771 2.14856C276.36 0.730179 272.702 0 269.008 0C265.313 0 261.655 0.730179 258.244 2.14856C254.833 3.56695 251.736 5.64557 249.13 8.26493L223.229 34.2645C220.586 36.9171 218.498 40.0701 217.088 43.5391C215.678 47.0082 214.973 50.7236 215.016 54.4681C215.059 58.2126 215.848 61.9109 217.337 65.3468C218.826 68.7827 220.986 71.8872 223.689 74.4786L364.848 209.073H28.035C24.3491 209.077 20.7001 209.807 17.2964 211.222C13.8928 212.636 10.801 214.707 8.19772 217.317C5.59443 219.926 3.5306 223.023 2.12404 226.43C0.717487 229.837 -0.00423655 233.487 7.69774e-05 237.173V274.695C-0.00858106 278.392 0.713202 282.055 2.12397 285.472C3.53474 288.889 5.60671 291.994 8.22086 294.608C10.835 297.222 13.9399 299.294 17.3571 300.705C20.7743 302.116 24.4365 302.838 28.1335 302.829H364.947L223.787 437.423C221.043 439.994 218.846 443.093 217.327 446.533C215.808 449.973 214.998 453.684 214.946 457.444C214.894 461.204 215.6 464.936 217.024 468.417C218.447 471.898 220.557 475.056 223.229 477.703Z" />
  </symbol>

  <symbol id="icon-edit" viewBox="0 0 522 512">
    <path d="M503.11 475.295H18.3671C13.4997 475.295 8.83162 477.228 5.38984 480.67C1.94807 484.112 0.0144647 488.78 0.0144647 493.647C0.0144647 498.515 1.94807 503.183 5.38984 506.625C8.83162 510.066 13.4997 512 18.3671 512H503.11C507.977 512 512.645 510.066 516.087 506.625C519.529 503.183 521.462 498.515 521.462 493.647C521.462 488.78 519.529 484.112 516.087 480.67C512.645 477.228 507.977 475.295 503.11 475.295ZM0.775199 314.718L0.0144647 401.124C-0.0863146 403.549 0.340464 405.966 1.26533 408.21C2.19019 410.454 3.59111 412.47 5.37128 414.12C8.9881 417.299 13.5604 419.184 18.3671 419.476L104.773 418.716C109.58 418.423 114.152 416.538 117.769 413.359L414.421 116.706C417.719 113.183 419.554 108.537 419.554 103.711C419.554 98.8843 417.719 94.2385 414.421 90.7148L328.839 5.13288C325.316 1.83492 320.67 0 315.844 0C311.017 0 306.372 1.83492 302.848 5.13288L6.1637 301.817C4.44633 303.496 3.08429 305.504 2.15858 307.72C1.23287 309.936 0.762395 312.316 0.775199 314.718ZM375.434 103.711L341.804 137.341L282.118 77.6874L315.749 44.0568L375.434 103.711ZM37.4804 322.42L256.19 103.711L315.844 163.364L97.1342 382.074H37.4804V322.42Z" />
  </symbol>

</svg>