<svg xmlns="http://www.w3.org/2000/svg" style="display: none;">

  <symbol id="icon-phone" viewBox="0 0 512 512">
    <path fill-rule="evenodd" clip-rule="evenodd" d="M259.123 452.869C218.14 424.949 180.275 392.704 146.181 356.689C100.514 310.973 61.9487 258.673 31.7703 201.528C-7.91613 128.949 -2.3688 94.0524 5.96315 67.0299C13.4819 46.6044 27.8484 29.4191 46.6143 18.4025C46.9871 18.1832 47.316 17.9419 47.6668 17.7226L48.8069 16.9329H48.9166C62.5337 6.9002 78.7601 1.01978 95.6413 0C105.429 0.266308 115.023 2.79006 123.675 7.37454C132.327 11.959 139.804 18.4804 145.523 26.4303L146.97 28.1631C165.056 48.6487 180.727 71.1471 193.673 95.2149C200.908 107.111 204.567 120.839 204.213 134.759C203.86 148.679 199.508 162.203 191.678 173.716C178.983 190.978 173.984 200.234 174.4 205.674C174.817 211.114 181.767 219.01 192.292 230.942L193.783 232.653C216.126 257.964 222.901 264.961 231.496 273.822L232.198 274.568C232.951 275.301 233.705 276.096 234.479 276.914L234.522 276.959C235.311 277.792 236.276 278.801 237.241 279.767L240.201 282.881C253.42 296.746 267.425 309.84 282.145 322.099L283.768 323.568C293.043 331.574 297.318 335.128 300.958 335.128C315.933 330.477 329.937 323.141 342.289 313.479C349.539 309.053 357.918 306.828 366.408 307.074C405.875 307.074 466.369 347.871 487.66 369.761C510.551 393.384 526.447 421.591 488.317 467.696C478.204 482.906 464.093 495.031 447.536 502.735C430.979 510.44 412.618 513.427 394.473 511.366C359.874 511.388 310.518 490.047 259.123 452.869ZM62.0065 39.1081L62.3135 38.9326C72.0514 31.6094 83.6392 27.1504 95.7728 26.0574C101.903 26.386 107.875 28.1267 113.223 31.1438C118.57 34.1609 123.148 38.3727 126.601 43.451L128.048 45.1838C164.665 89.9289 193.257 129.41 171.988 158.406C158.778 171.791 150.864 189.511 149.711 208.284C150.895 222.695 160.367 233.333 174.707 249.432L175.716 250.595C199.139 277.079 205.998 284.129 214.609 292.98L214.942 293.322C215.709 294.067 216.367 294.769 217.244 295.691C218.121 296.612 219.02 297.555 219.985 298.52L222.594 301.262C236.47 315.748 251.108 329.483 266.446 342.41L268.047 343.879C276.484 353.803 288.372 360.153 301.309 361.646C321.393 358.042 340.19 349.257 355.839 336.159C359.188 334.31 362.982 333.422 366.803 333.592C397.938 333.592 451.591 369.235 470.426 388.668C487.44 405.974 495.816 418.783 469.505 450.697C461.682 463.046 450.467 472.878 437.203 479.016C423.939 485.155 409.188 487.339 394.715 485.309C365.706 485.309 320.407 465.239 273.616 431.571C233.821 404.5 197.064 373.209 163.985 338.242C119.938 294.225 82.7522 243.836 53.6745 188.763C18.9215 125.199 22.8682 97.6715 29.8846 74.9042C35.6201 60.3576 46.1686 48.2184 59.77 40.5119L60.6471 39.9635C61.0808 39.6485 61.5349 39.3628 62.0065 39.1081Z" />
  </symbol>

  <symbol id="icon-phone-filled" viewBox="0 0 512 512">
    <path d="M391.049,319.669c-35.253-3.2-54.483,44.868-80.121,57.687-41.663,22.434-118.58-57.687-118.58-57.687s-80.121-76.916-60.892-118.58c16.024-25.639,64.1-44.868,60.892-80.121C189.144,88.92,118.637-26.455,83.383,5.594,6.467,76.1.057,104.944.057,162.632c-3.2,99.35,124.989,224.34,124.989,224.34,12.819,12.819,124.989,128.194,224.34,124.989,57.687,0,86.531-6.41,157.038-83.326,32.049-35.253-80.121-105.76-115.375-108.965Z" transform="translate(0.002 -0.026)" />
  </symbol>

  <symbol id="icon-user" viewBox="0 0 512 512">
    <path fill-rule="evenodd" clip-rule="evenodd" d="M313.386 270.806C335.29 257.692 353.548 239.28 366.482 217.264C379.416 195.248 386.611 170.333 387.406 144.808C387.406 76.4509 328.595 0.419922 249.042 0.419922C169.489 0.419922 110.678 76.5391 110.678 144.808C111.473 170.333 118.668 195.248 131.602 217.264C144.536 239.28 162.794 257.692 184.699 270.806C132.904 282.899 86.6193 311.923 53.1673 353.286C19.7152 394.649 1.00605 445.99 0 499.186C0.0400671 500.964 0.429965 502.717 1.14742 504.344C1.86487 505.971 2.89582 507.441 4.18135 508.67C5.46689 509.899 6.98183 510.862 8.63961 511.505C10.2974 512.148 12.0655 512.457 13.843 512.416H484.263C486.041 512.457 487.809 512.148 489.467 511.505C491.124 510.862 492.639 509.899 493.925 508.67C495.211 507.441 496.241 505.971 496.959 504.344C497.676 502.717 498.066 500.964 498.106 499.186C497.099 445.987 478.387 394.644 444.93 353.28C411.474 311.916 365.184 282.894 313.386 270.806ZM170.631 64.0764C150.112 85.9719 138.591 114.797 138.364 144.808C138.602 174.812 150.128 203.626 170.646 225.512C191.164 247.398 219.17 260.751 249.086 262.912C279.096 260.987 307.248 247.705 327.82 225.763C348.392 203.822 359.842 174.868 359.842 144.786C359.842 114.704 348.392 85.7504 327.82 63.8091C307.248 41.8678 279.096 28.5851 249.086 26.6603C219.162 28.8218 191.15 42.181 170.631 64.0764ZM100.058 344.271C59.111 380.778 33.4982 431.438 28.3694 486.066H469.737C464.609 431.449 439.005 380.799 398.073 344.294C357.14 307.789 303.912 288.136 249.086 289.285C194.249 288.119 141.005 307.765 100.058 344.271Z" />
  </symbol>

  <symbol id="icon-envelope" viewBox="0 0 632 512">
    <path fill-rule="evenodd" clip-rule="evenodd" d="M76.2631 512.575C56.2578 512.548 37.0799 504.585 22.9364 490.431C8.7929 476.278 0.838596 457.091 0.818359 437.079L0.818359 76.1994V75.7659C0.912665 55.8045 8.90047 36.6919 23.0367 22.6032C37.173 8.51461 56.3086 0.595251 76.2631 0.575256L557.462 0.575256C577.34 0.600941 596.407 8.46283 610.53 22.4566C624.652 36.4504 632.692 55.4484 632.907 75.3323V76.633V437.079C632.88 457.087 624.923 476.267 610.78 490.415C596.637 504.563 577.463 512.523 557.462 512.55L76.2631 512.575ZM44.5742 468.797C36.1609 460.385 31.4279 448.978 31.4144 437.079V105.429L308.105 299.348C310.678 301.154 313.745 302.122 316.888 302.122C320.031 302.122 323.098 301.154 325.672 299.348L602.337 105.505V437.079C602.323 448.978 597.59 460.385 589.177 468.797C580.763 477.208 569.357 481.936 557.462 481.943H76.2886C64.3937 481.936 52.9876 477.208 44.5742 468.797ZM601.801 68.5223L316.977 267.976L32.0263 68.5223C33.8174 58.0808 39.2384 48.6079 47.3323 41.7759C55.4262 34.9438 65.6727 31.1917 76.2631 31.182H557.462C568.07 31.1677 578.341 34.9088 586.456 41.743C594.571 48.5772 600.007 58.0635 601.801 68.5223Z" />
  </symbol>

  <symbol id="icon-envelope-filled" viewBox="0 0 640 512">
    <path d="M575.933 0H64.04C47.1111 0.0846457 30.9044 6.86905 18.9637 18.8697C7.02307 30.8704 0.319991 47.1109 0.320202 64.04L0 447.96C0 464.944 6.74706 481.233 18.7569 493.243C30.7667 505.253 47.0556 512 64.04 512H575.933C592.918 512 609.207 505.253 621.216 493.243C633.226 481.233 639.973 464.944 639.973 447.96V64.04C639.973 47.0556 633.226 30.7667 621.216 18.7569C609.207 6.74706 592.918 0 575.933 0V0ZM563.019 136.085L336.797 277.507C331.697 280.644 325.827 282.304 319.84 282.304C313.853 282.304 307.983 280.644 302.883 277.507L76.7947 136.085C70.6732 132.267 66.3191 126.174 64.6903 119.145C63.0614 112.117 64.2913 104.73 68.1092 98.6083C71.9272 92.4868 78.0206 88.1327 85.0488 86.5039C92.0771 84.8751 99.4645 86.1049 105.586 89.9229L319.96 223.98L534.334 89.9229C540.455 86.1191 547.837 84.9028 554.856 86.5416C561.874 88.1805 567.954 92.5402 571.757 98.6617C575.561 104.783 576.777 112.165 575.139 119.183C573.5 126.201 569.14 132.281 563.019 136.085V136.085Z" />
  </symbol>

  <symbol id="icon-lock" viewBox="0 0 512 512">
    <path fill-rule="evenodd" clip-rule="evenodd" d="M63.774 512.416C46.8857 512.398 30.6927 505.685 18.7426 493.748C6.79245 481.81 0.0594376 465.62 0.0185547 448.726L0.0185547 271.792C0.0360865 254.882 6.75879 238.67 18.7115 226.713C30.6641 214.756 46.8704 208.031 63.774 208.014H101.038V139.996C101.038 102.977 115.739 67.4741 141.906 41.2978C168.073 15.1214 203.564 0.41571 240.57 0.41571C277.576 0.41571 313.066 15.1214 339.233 41.2978C365.4 67.4741 380.101 102.977 380.101 139.996V208.014H417.255C434.157 208.037 450.36 214.764 462.311 226.72C474.262 238.675 480.987 254.884 481.01 271.792V448.726C480.964 465.619 474.229 481.805 462.28 493.741C450.331 505.678 434.141 512.392 417.255 512.416H63.774ZM26.5097 448.726V271.792C26.5214 261.909 30.4512 252.434 37.4371 245.445C44.423 238.457 53.8945 234.526 63.774 234.514H417.255C422.153 234.508 427.005 235.468 431.532 237.339C436.06 239.209 440.174 241.954 443.641 245.415C447.108 248.877 449.859 252.989 451.737 257.514C453.614 262.04 454.582 266.891 454.585 271.792V448.726C454.582 453.626 453.614 458.478 451.737 463.004C449.859 467.529 447.108 471.64 443.641 475.102C440.174 478.564 436.06 481.309 431.532 483.179C427.005 485.05 422.153 486.009 417.255 486.004H63.774C53.8945 485.992 44.423 482.061 37.4371 475.072C30.4512 468.084 26.5214 458.609 26.5097 448.726ZM353.588 139.996V208.014H127.552V139.996C127.967 110.285 140.057 81.9313 161.206 61.0677C182.356 40.2041 210.866 28.5074 240.57 28.5074C270.273 28.5074 298.783 40.2041 319.933 61.0677C341.083 81.9313 353.173 110.285 353.588 139.996Z" />
  </symbol>

  <symbol id="icon-google" viewBox="0 0 512 512">
    <path fill="#FBBB00" d="M113.489 309.398L95.6638 375.904L30.508 377.277C10.8048 340.584 0.336385 299.642 0.00797318 257.994C-0.320438 216.346 9.50106 175.245 28.6231 138.245L86.6118 148.88L112.046 206.497C100.623 239.918 101.133 276.264 113.489 309.351V309.398Z" />
    <path fill="#518EF8" d="M507.496 208.172C516.173 253.813 512.265 300.955 496.192 344.543C480.118 388.132 452.485 426.525 416.254 455.605L343.21 451.882L332.878 387.353C363.04 369.673 386.214 342.169 398.522 309.444H261.649V208.172H507.519H507.496Z" />
    <path fill="#28B446" d="M416.231 455.605C386.944 479.125 352.84 495.912 316.339 504.774C279.838 513.636 241.833 514.356 205.022 506.883C168.212 499.409 133.497 483.925 103.341 461.531C73.1848 439.136 48.3271 410.38 30.5312 377.301L113.489 309.398C121.276 330.159 133.505 348.969 149.32 364.511C165.135 380.053 184.154 391.951 205.048 399.376C225.941 406.801 248.204 409.572 270.28 407.495C292.356 405.419 313.712 398.545 332.854 387.353L416.231 455.605Z" />
    <path fill="#F14336" d="M419.372 58.9402L336.461 126.843C317.036 114.742 295.132 107.178 272.379 104.712C249.626 102.247 226.61 104.944 205.044 112.603C183.478 120.263 163.916 132.687 147.815 148.951C131.714 165.215 119.488 184.901 112.046 206.543L28.6697 138.269C46.2545 104.309 71.2248 74.7214 101.746 51.6796C132.267 28.6379 167.563 12.7278 205.04 5.11842C242.517 -2.49095 281.223 -1.60617 318.313 7.70773C355.404 17.0216 389.936 34.528 419.372 58.9402Z" />
  </symbol>

  <symbol id="icon-apple" viewBox="0 0 415 512">
    <path fill-rule="evenodd" clip-rule="evenodd" d="M414.839 375.875C410.721 373.269 406.207 371.221 401.507 368.336C376.227 353.057 357.918 328.505 350.485 299.917C343.053 271.329 347.084 240.968 361.721 215.311C369.419 203.232 378.957 192.43 389.99 183.296C393.759 180.387 397.319 177.805 401.088 174.571C395.218 165.391 387.895 157.226 379.404 150.396C364.295 138.515 346.628 130.314 327.802 126.441C308.975 122.568 289.506 123.131 270.934 128.084C258.812 131.853 248.994 135.529 236.895 140.113C225.324 146.628 211.714 148.515 198.807 145.394C176.285 135.083 152.312 128.295 127.728 125.269C102.822 125.689 78.6227 133.62 58.2993 148.023C56.2053 149.443 53.5064 151.792 51.7382 153.212C-33.0226 225.013 -0.332895 369.151 55.0885 449.491C58.4622 454.4 61.4637 458.797 64.8839 463.195C68.3042 467.592 71.3752 472.292 74.7955 475.945C105.182 508.518 120.143 522.595 168.142 503.097C179.128 498.032 190.703 494.358 202.6 492.162C236.499 486.88 251.32 499.142 277.333 507.727C289.161 511.868 301.935 512.494 314.112 509.529C326.288 506.565 337.346 500.137 345.946 491.022C360.981 474.941 374.401 457.422 386.012 438.718C398.263 419.107 407.921 397.991 414.746 375.898L414.839 375.875ZM309.138 0.0234315C310.767 21.6598 306.152 43.3093 295.842 62.4005C285.531 81.4918 269.958 97.223 250.971 107.726C241.432 113.007 212.744 122.243 207.649 117.264C204.95 114.635 207.23 95.906 208.021 91.6714C214.013 64.7281 228.966 40.613 250.436 23.2668C267.572 10.3412 287.891 2.30066 309.231 0L309.138 0.0234315Z" />
  </symbol>

  <symbol id="icon-facebook" viewBox="0 0 275 512">
    <path d="M205.787 0C133.705 0 91.4286 38.0709 91.4286 124.818V201.143H0V292.571H91.4286V512H182.857V292.571H256L274.286 201.143H182.857V140.288C182.857 107.611 193.518 91.4286 224.183 91.4286H274.286V3.74857C265.618 2.57828 240.366 0 205.787 0Z" />
  </symbol>

  <symbol id="icon-reg-private" viewBox="0 0 407 512">
    <g>
      <path fill-rule="evenodd" clip-rule="evenodd" d="M203.037 1.657e-05C180.339 1.657e-05 158.151 6.7308 139.278 19.3412C120.405 31.9516 105.696 49.8753 97.0094 70.8457C88.3232 91.8161 86.0505 114.891 90.4786 137.153C94.9068 159.415 105.837 179.864 121.887 195.914C137.937 211.964 158.386 222.895 180.648 227.323C202.91 231.751 225.985 229.478 246.956 220.792C267.926 212.106 285.85 197.396 298.46 178.523C311.071 159.651 317.801 137.462 317.801 114.764C317.809 99.6907 314.847 84.7636 309.082 70.8361C303.317 56.9087 294.864 44.254 284.206 33.5955C273.547 22.9371 260.893 14.484 246.965 8.7194C233.038 2.95484 218.111 -0.00808517 203.037 1.657e-05ZM256.983 34.0164C241.015 23.347 222.242 17.6522 203.037 17.6522C190.271 17.5984 177.62 20.0732 165.816 24.9338C154.011 29.7945 143.285 36.9447 134.258 45.972C125.231 54.9992 118.08 65.7248 113.22 77.5297C108.359 89.3346 105.884 101.985 105.938 114.752C105.938 133.956 111.633 152.729 122.302 168.697C132.972 184.665 148.136 197.111 165.879 204.46C183.622 211.809 203.145 213.732 221.981 209.985C240.816 206.239 258.117 196.991 271.697 183.411C285.277 169.832 294.525 152.53 298.271 133.695C302.018 114.859 300.095 95.3359 292.746 77.5933C285.396 59.8507 272.951 44.6858 256.983 34.0164Z" />
      <path fill-rule="evenodd" clip-rule="evenodd" d="M114.764 247.168C99.6884 247.152 84.7577 250.109 70.8266 255.871C56.8954 261.632 44.2375 270.085 33.5775 280.745C22.9174 291.405 14.4646 304.063 8.70292 317.994C2.94123 331.925 -0.0161527 346.856 6.63514e-05 361.932V512H406.062V361.932C406.078 346.856 403.121 331.925 397.359 317.994C391.598 304.063 383.145 291.405 372.485 280.745C361.825 270.085 349.167 261.632 335.236 255.871C321.305 250.109 306.374 247.152 291.298 247.168H114.764ZM24.9339 324.71C20.0733 336.515 17.5984 349.165 17.6523 361.932V494.311H388.41V361.932C388.464 349.165 385.989 336.515 381.128 324.71C376.268 312.905 369.118 302.179 360.09 293.152C351.063 284.125 340.338 276.975 328.533 272.114C316.728 267.253 304.077 264.778 291.311 264.832H114.752C101.985 264.778 89.3347 267.253 77.5297 272.114C65.7248 276.975 54.9993 284.125 45.972 293.152C36.9448 302.179 29.7945 312.905 24.9339 324.71Z" />
    </g>
  </symbol>

  <symbol id="icon-reg-company" viewBox="0 0 407 512">
    <path fill-rule="evenodd" clip-rule="evenodd" d="M114.764 247.168C99.6884 247.152 84.7577 250.109 70.8266 255.871C56.8954 261.632 44.2375 270.085 33.5775 280.745C22.9174 291.405 14.4646 304.063 8.70292 317.994C2.94123 331.925 -0.0161527 346.856 6.63514e-05 361.932V512H406.062V361.932C406.078 346.856 403.121 331.925 397.359 317.994C391.598 304.063 383.145 291.405 372.485 280.745C361.825 270.085 349.167 261.632 335.236 255.871C321.305 250.109 306.374 247.152 291.298 247.168H114.764ZM24.9339 324.71C20.0733 336.515 17.5984 349.165 17.6523 361.932V494.311H388.41V361.932C388.464 349.165 385.989 336.515 381.128 324.71C376.268 312.905 369.118 302.179 360.09 293.152C351.063 284.125 340.338 276.975 328.533 272.114C316.728 267.253 304.077 264.778 291.311 264.832H114.752C101.985 264.778 89.3347 267.253 77.5297 272.114C65.7248 276.975 54.9993 284.125 45.972 293.152C36.9448 302.179 29.7945 312.905 24.9339 324.71Z" />
    <path fill-rule="evenodd" clip-rule="evenodd" d="M177.631 282.472L176.67 290.226L158.463 435.684L203.087 480.27L247.71 435.684L228.48 282.484L177.631 282.472ZM212.936 300.124H193.213L177.04 429.372L203.037 455.37L229.035 429.372L212.936 300.124Z" />
    <path fill-rule="evenodd" clip-rule="evenodd" d="M203.037 1.657e-05C180.339 1.657e-05 158.151 6.7308 139.278 19.3412C120.405 31.9516 105.695 49.8753 97.0093 70.8457C88.323 91.8161 86.0503 114.891 90.4785 137.153C94.9067 159.415 105.837 179.864 121.887 195.914C137.937 211.964 158.386 222.895 180.648 227.323C202.91 231.751 225.985 229.478 246.956 220.792C267.926 212.106 285.85 197.396 298.46 178.523C311.07 159.651 317.801 137.462 317.801 114.764C317.809 99.6907 314.846 84.7636 309.082 70.8361C303.317 56.9087 294.864 44.254 284.206 33.5955C273.547 22.9371 260.893 14.484 246.965 8.7194C233.038 2.95484 218.111 -0.00808517 203.037 1.657e-05ZM256.983 34.0164C241.015 23.347 222.242 17.6522 203.037 17.6522C190.271 17.5984 177.62 20.0732 165.815 24.9338C154.01 29.7945 143.285 36.9447 134.258 45.972C125.23 54.9992 118.08 65.7248 113.22 77.5297C108.359 89.3346 105.884 101.985 105.938 114.752C105.938 133.956 111.633 152.729 122.302 168.697C132.972 184.665 148.136 197.111 165.879 204.46C183.622 211.809 203.145 213.732 221.98 209.985C240.816 206.239 258.117 196.991 271.697 183.411C285.277 169.832 294.524 152.53 298.271 133.695C302.018 114.859 300.095 95.3359 292.745 77.5933C285.396 59.8507 272.951 44.6858 256.983 34.0164Z" />
  </symbol>

  <symbol viewBox="0 0 421 512" id="icon-reg-user">
    <path d="M301.728 237.709C333.242 237.744 363.454 250.279 385.737 272.562C408.02 294.845 420.555 325.057 420.59 356.571L420.583 512H0V356.577C0.0351514 325.064 12.5693 294.852 34.8525 272.568C57.1357 250.285 87.3481 237.751 118.861 237.716L301.728 237.709Z" />
    <path d="M210.292 201.141C223.499 201.141 236.576 198.54 248.778 193.486C260.98 188.432 272.067 181.024 281.406 171.685C290.745 162.346 298.152 151.259 303.207 139.057C308.261 126.856 310.862 113.778 310.862 100.571C310.862 87.3635 308.261 74.2857 303.207 62.0839C298.152 49.8821 290.745 38.7953 281.406 29.4564C272.067 20.1176 260.98 12.7096 248.778 7.65548C236.576 2.60133 223.499 -1.96801e-07 210.292 0C197.084 -1.96801e-07 184.007 2.60133 171.805 7.65548C159.603 12.7096 148.516 20.1176 139.177 29.4564C129.839 38.7953 122.431 49.8821 117.376 62.0839C112.322 74.2857 109.721 87.3635 109.721 100.571C109.721 113.778 112.322 126.856 117.376 139.057C122.431 151.259 129.839 162.346 139.177 171.685C148.516 181.024 159.603 188.432 171.805 193.486C184.007 198.54 197.084 201.141 210.292 201.141Z" />
  </symbol>

  <symbol viewBox="0 0 1045 512" id="icon-reg-rental">
    <path d="M999.816 107.612L636.411 8.44285C576.572 -7.78921 512.783 -0.440083 458.206 28.9738L298.348 116.305L65.5248 159.96C48.2236 159.96 31.6244 166.8 19.3489 178.987C7.07338 191.175 0.117886 207.722 0 225.017V356.003C0 373.376 6.90348 390.037 19.1918 402.321C31.48 414.606 48.1465 421.507 65.5248 421.507H109.194C113.502 446.818 126.632 469.789 146.257 486.352C165.882 502.914 190.737 512 216.421 512C242.105 512 266.96 502.914 286.585 486.352C306.21 469.789 319.34 446.818 323.648 421.507H720.73C725.039 446.818 738.168 469.789 757.793 486.352C777.419 502.914 802.274 512 827.957 512C853.641 512 878.496 502.914 898.121 486.352C917.746 469.789 930.876 446.818 935.184 421.507H978.853C996.232 421.507 1012.9 414.606 1025.19 402.321C1037.47 390.037 1044.38 373.376 1044.38 356.003V168.695C1044.18 155.158 1039.78 142.017 1031.8 131.078C1023.82 120.14 1012.65 111.942 999.816 107.612ZM786.212 94.8601V115.816H755.64L738.631 81.3215L786.212 94.8601ZM480.487 67.8255C522.506 45.4099 571.203 38.8975 617.638 49.4836H633.796L683.588 63.0222L707.974 112.373H393.106L480.487 67.8255ZM218.388 468.244C205.428 468.244 192.759 464.402 181.984 457.204C171.208 450.007 162.81 439.776 157.851 427.807C152.891 415.838 151.594 402.667 154.122 389.961C156.65 377.254 162.891 365.583 172.055 356.422C181.218 347.261 192.894 341.022 205.604 338.495C218.315 335.968 231.49 337.265 243.463 342.223C255.436 347.18 265.669 355.576 272.869 366.348C280.069 377.12 283.912 389.785 283.912 402.74C283.912 411.342 282.218 419.86 278.925 427.807C275.632 435.755 270.805 442.976 264.721 449.058C258.636 455.141 251.413 459.966 243.463 463.258C235.513 466.549 226.992 468.244 218.388 468.244ZM829.903 468.244C816.943 468.244 804.274 464.402 793.499 457.204C782.723 450.007 774.325 439.776 769.366 427.807C764.406 415.838 763.109 402.667 765.637 389.961C768.165 377.254 774.406 365.583 783.57 356.422C792.733 347.261 804.409 341.022 817.119 338.495C829.83 335.968 843.005 337.265 854.978 342.223C866.951 347.18 877.184 355.576 884.384 366.348C891.584 377.12 895.427 389.785 895.427 402.74C895.427 411.342 893.732 419.86 890.44 427.807C887.147 435.755 882.32 442.976 876.236 449.058C870.151 455.141 862.928 459.966 854.978 463.258C847.028 466.549 838.507 468.244 829.903 468.244ZM1004.62 246.866H982.787C976.996 246.866 971.442 249.166 967.347 253.259C963.253 257.353 960.952 262.904 960.952 268.693C960.952 274.482 963.253 280.034 967.347 284.128C971.442 288.221 976.996 290.521 982.787 290.521H1004.62V356.025C1004.62 361.814 1002.32 367.366 998.226 371.459C994.131 375.552 988.577 377.852 982.787 377.852H936.014C930.432 353.955 916.928 332.648 897.698 317.395C878.468 302.143 854.642 293.842 830.094 293.842C805.546 293.842 781.72 302.143 762.49 317.395C743.259 332.648 729.756 353.955 724.174 377.852H324.477C318.896 353.955 305.392 332.648 286.162 317.395C266.931 302.143 243.105 293.842 218.558 293.842C194.01 293.842 170.184 302.143 150.954 317.395C131.723 332.648 118.219 353.955 112.638 377.852H65.5248C59.7339 377.852 54.1802 375.552 50.0854 371.459C45.9907 367.366 43.6903 361.814 43.6903 356.025V290.521H65.5248C71.3157 290.521 76.8693 288.221 80.9641 284.128C85.0589 280.034 87.3593 274.482 87.3593 268.693C87.3593 262.904 85.0589 257.353 80.9641 253.259C76.8693 249.166 71.3157 246.866 65.5248 246.866H43.669V225.017C43.83 221.839 44.6329 218.727 46.0295 215.867C47.426 213.008 49.3873 210.461 51.795 208.38C54.2028 206.299 57.0071 204.726 60.0391 203.757C63.071 202.789 66.2678 202.444 69.4367 202.743L305.747 159.514H808.068C813.859 159.514 819.413 157.214 823.507 153.12C827.602 149.027 829.903 143.475 829.903 137.686V106.698L988.463 150.353C992.68 151.45 996.471 153.783 999.351 157.052C1002.23 160.32 1004.07 164.375 1004.62 168.695V246.866ZM677.018 290.521H371.272C365.481 290.521 359.927 292.821 355.832 296.914C351.738 301.008 349.437 306.559 349.437 312.348C349.437 318.137 351.738 323.689 355.832 327.783C359.927 331.876 365.481 334.176 371.272 334.176H677.018C679.886 334.176 682.725 333.611 685.374 332.514C688.023 331.417 690.43 329.81 692.458 327.783C694.485 325.756 696.094 323.35 697.191 320.701C698.288 318.053 698.853 315.215 698.853 312.348C698.853 309.482 698.288 306.644 697.191 303.995C696.094 301.347 694.485 298.941 692.458 296.914C690.43 294.887 688.023 293.279 685.374 292.182C682.725 291.086 679.886 290.521 677.018 290.521Z" />
  </symbol>

  <symbol viewBox="0 0 592 512" id="icon-reg-camera">
    <path d="M510.669 215.021C503.541 215.021 496.706 217.853 491.665 222.893C486.625 227.933 483.794 234.769 483.794 241.897V430.043C483.794 437.17 480.962 444.006 475.922 449.046C470.882 454.087 464.046 456.918 456.918 456.918H80.6268C73.499 456.918 66.6631 454.087 61.6229 449.046C56.5827 444.006 53.7512 437.17 53.7512 430.043V215.021C53.7512 207.893 56.5827 201.058 61.6229 196.017C66.6631 190.977 73.499 188.146 80.6268 188.146H134.394C140.256 188.451 146.057 186.829 150.91 183.527C155.763 180.226 159.402 175.426 161.27 169.862L175.776 125.786C177.577 120.447 181.011 115.809 185.592 112.528C190.173 109.247 195.669 107.489 201.304 107.502H349.399C352.929 107.502 356.423 106.807 359.684 105.457C362.945 104.106 365.908 102.126 368.403 99.6307C370.899 97.1351 372.878 94.1724 374.229 90.9117C375.58 87.651 376.275 84.1562 376.275 80.6268C376.275 77.0975 375.58 73.6027 374.229 70.342C372.878 67.0813 370.899 64.1185 368.403 61.6229C365.908 59.1273 362.945 57.1476 359.684 55.797C356.423 54.4464 352.929 53.7512 349.399 53.7512H199.908C183.027 53.7942 166.585 59.1348 152.9 69.0201C139.216 78.9054 128.979 92.8366 123.634 108.849L114.993 135.725H80.6268C70.0374 135.725 59.5516 137.811 49.7685 141.864C39.9853 145.917 31.0963 151.857 23.6092 159.346C16.1221 166.835 10.1835 175.725 6.13264 185.509C2.08173 195.293 -0.00215592 205.779 1.67371e-06 216.368V431.373C1.67371e-06 452.757 8.49459 473.264 23.6151 488.385C38.7355 503.505 59.2433 512 80.6268 512H456.918C478.302 512 498.809 503.505 513.93 488.385C529.05 473.264 537.545 452.757 537.545 431.373V243.244C537.728 239.603 537.168 235.963 535.899 232.545C534.631 229.127 532.68 226.003 530.166 223.363C527.652 220.723 524.627 218.622 521.275 217.188C517.923 215.754 514.315 215.017 510.669 215.021ZM268.772 188.146C247.513 188.146 226.73 194.449 209.052 206.26C191.375 218.07 177.596 234.857 169.458 254.497C161.32 274.138 159.188 295.751 163.332 316.603C167.476 337.455 177.71 356.61 192.739 371.646C207.769 386.683 226.919 396.925 247.77 401.079C268.62 405.232 290.233 403.111 309.878 394.982C329.522 386.852 346.315 373.081 358.134 355.409C369.952 337.737 376.265 316.957 376.275 295.697C376.281 281.576 373.506 267.591 368.106 254.543C362.706 241.494 354.789 229.638 344.806 219.65C334.822 209.662 322.969 201.739 309.923 196.334C296.877 190.928 282.894 188.146 268.772 188.146ZM268.772 349.416C258.14 349.416 247.747 346.262 238.907 340.355C230.066 334.447 223.177 326.05 219.11 316.227C215.042 306.403 213.98 295.594 216.057 285.166C218.133 274.738 223.256 265.161 230.776 257.645C238.297 250.129 247.877 245.012 258.306 242.942C268.735 240.872 279.544 241.941 289.365 246.014C299.186 250.088 307.579 256.982 313.481 265.826C319.383 274.67 322.53 285.065 322.524 295.697C322.511 309.945 316.842 323.604 306.763 333.673C296.684 343.743 283.02 349.399 268.772 349.399V349.416ZM564.47 53.7184H537.545V26.8756C537.545 19.7478 534.713 12.9118 529.673 7.87168C524.633 2.83153 517.797 0 510.669 0C503.541 0 496.706 2.83153 491.665 7.87168C486.625 12.9118 483.794 19.7478 483.794 26.8756V53.7512H456.918C453.389 53.7512 449.894 54.4464 446.633 55.797C443.373 57.1476 440.41 59.1273 437.914 61.6229C435.419 64.1185 433.439 67.0813 432.088 70.342C430.738 73.6027 430.043 77.0975 430.043 80.6268C430.043 84.1562 430.738 87.651 432.088 90.9117C433.439 94.1724 435.419 97.1351 437.914 99.6307C440.41 102.126 443.373 104.106 446.633 105.457C449.894 106.807 453.389 107.502 456.918 107.502H483.794V134.378C483.794 141.506 486.625 148.342 491.665 153.382C496.706 158.422 503.541 161.254 510.669 161.254C517.797 161.254 524.633 158.422 529.673 153.382C534.713 148.342 537.545 141.506 537.545 134.378V107.502H564.421C571.548 107.502 578.384 104.671 583.425 99.6307C588.465 94.5906 591.296 87.7547 591.296 80.6268C591.296 73.499 588.465 66.6631 583.425 61.6229C578.384 56.5827 571.548 53.7512 564.421 53.7512L564.47 53.7184Z" />
  </symbol>

  <symbol viewBox="0 0 512 512" id="icon-reg-photo">
    <path fill-rule="evenodd" clip-rule="evenodd" d="M511.973 455.112V56.8882C511.93 41.8185 505.926 27.3782 495.272 16.7199C484.619 6.0615 470.181 0.0508001 455.112 0H56.8882C41.814 0.0437977 27.3697 6.05142 16.7105 16.7105C6.05142 27.3697 0.0437977 41.814 0 56.8882V455.112C0.0437977 470.186 6.05142 484.63 16.7105 495.289C27.3697 505.949 41.814 511.956 56.8882 512H455.112C470.181 511.949 484.619 505.938 495.272 495.28C505.926 484.622 511.93 470.181 511.973 455.112ZM227.559 384.007L156.447 298.671L56.8882 426.664H455.112L327.112 256.007L227.559 384.007Z" />
  </symbol>

  <symbol viewBox="0 0 523 512" id="icon-car-w-cable">
    <path fill-rule="evenodd" clip-rule="evenodd" d="M273.071 359.695C273.069 357.405 272.158 355.208 270.539 353.589C268.919 351.97 266.724 351.061 264.435 351.061H144.628C142.338 351.061 140.141 351.971 138.521 353.592C136.902 355.213 135.992 357.411 135.992 359.703V403.988C135.992 406.28 136.902 408.478 138.521 410.099C140.141 411.719 142.338 412.63 144.628 412.63H264.435C266.725 412.63 268.922 411.719 270.541 410.099C272.161 408.478 273.071 406.28 273.071 403.988V359.695ZM153.264 395.345H255.799V368.362H153.264V395.345Z" />
    <path fill-rule="evenodd" clip-rule="evenodd" d="M78.9831 351.061H72.1871C63.8858 351.061 55.9246 354.361 50.0547 360.235C44.1848 366.11 40.8872 374.077 40.8872 382.385C40.8872 390.693 44.1848 398.66 50.0547 404.535C55.9246 410.409 63.8858 413.71 72.1871 413.71H78.9831C87.2843 413.71 95.2456 410.409 101.115 404.535C106.985 398.66 110.283 390.693 110.283 382.385C110.283 374.077 106.985 366.11 101.115 360.235C95.2456 354.361 87.2843 351.061 78.9831 351.061ZM72.1871 396.424H78.9831C82.7047 396.424 86.2738 394.945 88.9053 392.311C91.5369 389.677 93.0153 386.106 93.0153 382.381C93.0153 378.657 91.5369 375.085 88.9053 372.451C86.2738 369.817 82.7047 368.338 78.9831 368.338H72.1871C68.4655 368.338 64.8963 369.817 62.2648 372.451C59.6332 375.085 58.1548 378.657 58.1548 382.381C58.1548 386.106 59.6332 389.677 62.2648 392.311C64.8963 394.945 68.4655 396.424 72.1871 396.424Z" />
    <path fill-rule="evenodd" clip-rule="evenodd" d="M513.764 31.3244C516.054 31.3244 518.25 30.4139 519.87 28.7931C521.489 27.1723 522.399 24.974 522.399 22.6818C522.399 20.3897 521.489 18.1914 519.87 16.5706C518.25 14.9498 516.054 14.0392 513.764 14.0392H490.013V9.04733C490.119 6.75693 489.312 4.51813 487.77 2.82203C486.229 1.12594 484.078 0.11105 481.79 0H439.697C430.751 0.0930059 422.141 3.42696 415.462 9.38458C408.783 15.3422 404.487 23.5199 403.369 32.4038H110.751C94.2915 32.4038 78.5061 38.9474 66.8675 50.5951C55.2289 62.2429 48.6904 78.0406 48.6904 94.5129C48.6904 110.985 55.2289 126.783 66.8675 138.431C78.5061 150.079 94.2915 156.622 110.751 156.622H442.655C448.578 156.586 454.449 157.721 459.932 159.964C465.414 162.207 470.399 165.513 474.6 169.692C478.801 173.87 482.135 178.839 484.41 184.312C486.685 189.784 487.856 195.654 487.856 201.581V333.371C487.888 345.428 483.153 357.008 474.685 365.584C466.216 374.16 454.702 379.036 442.655 379.147H410.142V348.616C410.107 341.805 408.7 335.07 406.005 328.815C403.31 322.56 399.382 316.913 394.456 312.213L385.487 302.689L354.084 218.065C351.466 211.116 346.792 205.131 340.687 200.91C334.581 196.688 327.335 194.431 319.914 194.438H95.668C88.2566 194.438 81.0213 196.7 74.9284 200.923C68.8355 205.146 64.1749 211.129 61.5688 218.073L30.5465 301.697L17.6681 313.601C12.1379 318.31 7.69431 324.164 4.64399 330.759C1.59367 337.353 0.00923596 344.532 0 351.799V502.953C0.0147852 505.301 0.935329 507.554 2.56953 509.239C4.20372 510.925 6.4253 511.914 8.77062 512H87.4525C89.7798 511.905 91.979 510.908 93.5848 509.22C95.1906 507.531 96.077 505.284 96.0566 502.953V456.922H314.085V502.953C314.039 505.272 314.903 507.517 316.49 509.208C318.077 510.899 320.262 511.901 322.578 512H401.26C403.616 511.917 405.851 510.932 407.504 509.249C409.156 507.566 410.101 505.312 410.142 502.953V396.424H442.655C459.283 396.313 475.191 389.618 486.9 377.802C498.61 365.987 505.169 350.012 505.144 333.371V201.581C505.142 193.385 503.522 185.27 500.379 177.701C497.236 170.133 492.631 163.26 486.827 157.477C481.024 151.694 474.136 147.114 466.56 144.002C458.984 140.889 450.868 139.304 442.679 139.337H110.767C98.8839 139.337 87.4876 134.613 79.0851 126.204C70.6826 117.795 65.9621 106.389 65.9621 94.4971C65.9621 82.6048 70.6826 71.1996 79.0851 62.7905C87.4876 54.3814 98.8839 49.6572 110.767 49.6572H403.385C404.739 58.3446 409.137 66.2665 415.793 72.0056C422.448 77.7447 430.927 80.9264 439.713 80.9816H481.805C482.922 80.9552 484.022 80.7064 485.042 80.2499C486.062 79.7934 486.98 79.1382 487.744 78.3226C488.508 77.5071 489.103 76.5474 489.492 75.4996C489.882 74.4519 490.059 73.337 490.013 72.22V66.9582H513.756C516.046 66.9582 518.242 66.0477 519.862 64.4269C521.482 62.8061 522.391 60.6078 522.391 58.3157C522.391 56.0235 521.482 53.8252 519.862 52.2044C518.242 50.5836 516.046 49.6731 513.756 49.6731H490.013V31.3244H513.764ZM84.7405 215.143C81.534 217.371 79.0828 220.525 77.7144 224.184L50.3399 298.134H365.21L337.82 224.184C336.454 220.531 334.009 217.382 330.81 215.155C327.611 212.927 323.81 211.728 319.914 211.716H95.6601C91.7565 211.72 87.9471 212.915 84.7405 215.143ZM17.2716 494.723H78.777L78.7929 456.914H17.2716V494.723ZM331.341 456.914V494.723H392.862V456.914H331.341ZM17.2716 351.799V439.669H392.894V348.624C392.864 344.126 391.92 339.682 390.121 335.56C388.321 331.439 385.704 327.726 382.426 324.649C382.299 324.53 382.046 324.45 381.927 324.323L373.505 315.419H41.3314L29.3253 326.45C29.2301 326.537 29.1032 326.514 29.0002 326.601C25.3342 329.697 22.386 333.555 20.3606 337.906C18.3351 342.257 17.2811 346.998 17.2716 351.799ZM419.84 37.1735V44.1812L419.872 44.1415C419.965 49.351 422.092 54.3171 425.797 57.9776C429.502 61.638 434.491 63.7021 439.697 63.7282H451.124V17.3328H439.665C434.434 17.4186 429.441 19.5365 425.742 23.2389C422.042 26.9413 419.926 31.9382 419.84 37.1735ZM468.427 63.7679H472.726L472.741 17.2852H468.427V63.7679Z" />
    <path fill-rule="evenodd" clip-rule="evenodd" d="M337.851 351.061H331.055C322.754 351.061 314.793 354.361 308.923 360.235C303.053 366.11 299.755 374.077 299.755 382.385C299.755 390.693 303.053 398.66 308.923 404.535C314.793 410.409 322.754 413.71 331.055 413.71H337.851C346.153 413.71 354.114 410.409 359.984 404.535C365.854 398.66 369.151 390.693 369.151 382.385C369.151 374.077 365.854 366.11 359.984 360.235C354.114 354.361 346.153 351.061 337.851 351.061ZM331.055 396.424H337.851C341.573 396.424 345.142 394.945 347.774 392.311C350.405 389.677 351.884 386.106 351.884 382.381C351.884 378.657 350.405 375.085 347.774 372.451C345.142 369.817 341.573 368.338 337.851 368.338H331.055C327.334 368.338 323.765 369.817 321.133 372.451C318.501 375.085 317.023 378.657 317.023 382.381C317.023 386.106 318.501 389.677 321.133 392.311C323.765 394.945 327.334 396.424 331.055 396.424Z" />
  </symbol>

  <symbol viewBox="0 0 512 512" id="icon-">
    <path />
  </symbol>

</svg>