<svg xmlns="http://www.w3.org/2000/svg" style="display: none;">

  <symbol id="icon-phone" viewBox="0 0 512 512">
    <path fill-rule="evenodd" clip-rule="evenodd" d="M259.123 452.869C218.14 424.949 180.275 392.704 146.181 356.689C100.514 310.973 61.9487 258.673 31.7703 201.528C-7.91613 128.949 -2.3688 94.0524 5.96315 67.0299C13.4819 46.6044 27.8484 29.4191 46.6143 18.4025C46.9871 18.1832 47.316 17.9419 47.6668 17.7226L48.8069 16.9329H48.9166C62.5337 6.9002 78.7601 1.01978 95.6413 0C105.429 0.266308 115.023 2.79006 123.675 7.37454C132.327 11.959 139.804 18.4804 145.523 26.4303L146.97 28.1631C165.056 48.6487 180.727 71.1471 193.673 95.2149C200.908 107.111 204.567 120.839 204.213 134.759C203.86 148.679 199.508 162.203 191.678 173.716C178.983 190.978 173.984 200.234 174.4 205.674C174.817 211.114 181.767 219.01 192.292 230.942L193.783 232.653C216.126 257.964 222.901 264.961 231.496 273.822L232.198 274.568C232.951 275.301 233.705 276.096 234.479 276.914L234.522 276.959C235.311 277.792 236.276 278.801 237.241 279.767L240.201 282.881C253.42 296.746 267.425 309.84 282.145 322.099L283.768 323.568C293.043 331.574 297.318 335.128 300.958 335.128C315.933 330.477 329.937 323.141 342.289 313.479C349.539 309.053 357.918 306.828 366.408 307.074C405.875 307.074 466.369 347.871 487.66 369.761C510.551 393.384 526.447 421.591 488.317 467.696C478.204 482.906 464.093 495.031 447.536 502.735C430.979 510.44 412.618 513.427 394.473 511.366C359.874 511.388 310.518 490.047 259.123 452.869ZM62.0065 39.1081L62.3135 38.9326C72.0514 31.6094 83.6392 27.1504 95.7728 26.0574C101.903 26.386 107.875 28.1267 113.223 31.1438C118.57 34.1609 123.148 38.3727 126.601 43.451L128.048 45.1838C164.665 89.9289 193.257 129.41 171.988 158.406C158.778 171.791 150.864 189.511 149.711 208.284C150.895 222.695 160.367 233.333 174.707 249.432L175.716 250.595C199.139 277.079 205.998 284.129 214.609 292.98L214.942 293.322C215.709 294.067 216.367 294.769 217.244 295.691C218.121 296.612 219.02 297.555 219.985 298.52L222.594 301.262C236.47 315.748 251.108 329.483 266.446 342.41L268.047 343.879C276.484 353.803 288.372 360.153 301.309 361.646C321.393 358.042 340.19 349.257 355.839 336.159C359.188 334.31 362.982 333.422 366.803 333.592C397.938 333.592 451.591 369.235 470.426 388.668C487.44 405.974 495.816 418.783 469.505 450.697C461.682 463.046 450.467 472.878 437.203 479.016C423.939 485.155 409.188 487.339 394.715 485.309C365.706 485.309 320.407 465.239 273.616 431.571C233.821 404.5 197.064 373.209 163.985 338.242C119.938 294.225 82.7522 243.836 53.6745 188.763C18.9215 125.199 22.8682 97.6715 29.8846 74.9042C35.6201 60.3576 46.1686 48.2184 59.77 40.5119L60.6471 39.9635C61.0808 39.6485 61.5349 39.3628 62.0065 39.1081Z" />
  </symbol>

  <symbol id="icon-phone-filled" viewBox="0 0 512 512">
    <path fill="#b12083" d="M391.049,319.669c-35.253-3.2-54.483,44.868-80.121,57.687-41.663,22.434-118.58-57.687-118.58-57.687s-80.121-76.916-60.892-118.58c16.024-25.639,64.1-44.868,60.892-80.121C189.144,88.92,118.637-26.455,83.383,5.594,6.467,76.1.057,104.944.057,162.632c-3.2,99.35,124.989,224.34,124.989,224.34,12.819,12.819,124.989,128.194,224.34,124.989,57.687,0,86.531-6.41,157.038-83.326,32.049-35.253-80.121-105.76-115.375-108.965Z" transform="translate(0.002 -0.026)" />
  </symbol>

  <symbol id="icon-user" viewBox="0 0 512 512">
    <path fill-rule="evenodd" clip-rule="evenodd" d="M313.386 270.806C335.29 257.692 353.548 239.28 366.482 217.264C379.416 195.248 386.611 170.333 387.406 144.808C387.406 76.4509 328.595 0.419922 249.042 0.419922C169.489 0.419922 110.678 76.5391 110.678 144.808C111.473 170.333 118.668 195.248 131.602 217.264C144.536 239.28 162.794 257.692 184.699 270.806C132.904 282.899 86.6193 311.923 53.1673 353.286C19.7152 394.649 1.00605 445.99 0 499.186C0.0400671 500.964 0.429965 502.717 1.14742 504.344C1.86487 505.971 2.89582 507.441 4.18135 508.67C5.46689 509.899 6.98183 510.862 8.63961 511.505C10.2974 512.148 12.0655 512.457 13.843 512.416H484.263C486.041 512.457 487.809 512.148 489.467 511.505C491.124 510.862 492.639 509.899 493.925 508.67C495.211 507.441 496.241 505.971 496.959 504.344C497.676 502.717 498.066 500.964 498.106 499.186C497.099 445.987 478.387 394.644 444.93 353.28C411.474 311.916 365.184 282.894 313.386 270.806ZM170.631 64.0764C150.112 85.9719 138.591 114.797 138.364 144.808C138.602 174.812 150.128 203.626 170.646 225.512C191.164 247.398 219.17 260.751 249.086 262.912C279.096 260.987 307.248 247.705 327.82 225.763C348.392 203.822 359.842 174.868 359.842 144.786C359.842 114.704 348.392 85.7504 327.82 63.8091C307.248 41.8678 279.096 28.5851 249.086 26.6603C219.162 28.8218 191.15 42.181 170.631 64.0764ZM100.058 344.271C59.111 380.778 33.4982 431.438 28.3694 486.066H469.737C464.609 431.449 439.005 380.799 398.073 344.294C357.14 307.789 303.912 288.136 249.086 289.285C194.249 288.119 141.005 307.765 100.058 344.271Z" />
  </symbol>

  <symbol id="icon-envelope" viewBox="0 0 512 512">
    <path fill-rule="evenodd" clip-rule="evenodd" d="M76.2631 512.575C56.2578 512.548 37.0799 504.585 22.9364 490.431C8.7929 476.278 0.838596 457.091 0.818359 437.079L0.818359 76.1994V75.7659C0.912665 55.8045 8.90047 36.6919 23.0367 22.6032C37.173 8.51461 56.3086 0.595251 76.2631 0.575256L557.462 0.575256C577.34 0.600941 596.407 8.46283 610.53 22.4566C624.652 36.4504 632.692 55.4484 632.907 75.3323V76.633V437.079C632.88 457.087 624.923 476.267 610.78 490.415C596.637 504.563 577.463 512.523 557.462 512.55L76.2631 512.575ZM44.5742 468.797C36.1609 460.385 31.4279 448.978 31.4144 437.079V105.429L308.105 299.348C310.678 301.154 313.745 302.122 316.888 302.122C320.031 302.122 323.098 301.154 325.672 299.348L602.337 105.505V437.079C602.323 448.978 597.59 460.385 589.177 468.797C580.763 477.208 569.357 481.936 557.462 481.943H76.2886C64.3937 481.936 52.9876 477.208 44.5742 468.797ZM601.801 68.5223L316.977 267.976L32.0263 68.5223C33.8174 58.0808 39.2384 48.6079 47.3323 41.7759C55.4262 34.9438 65.6727 31.1917 76.2631 31.182H557.462C568.07 31.1677 578.341 34.9088 586.456 41.743C594.571 48.5772 600.007 58.0635 601.801 68.5223Z" />
  </symbol>

  <symbol id="icon-lock" viewBox="0 0 512 512">
    <path fill-rule="evenodd" clip-rule="evenodd" d="M63.774 512.416C46.8857 512.398 30.6927 505.685 18.7426 493.748C6.79245 481.81 0.0594376 465.62 0.0185547 448.726L0.0185547 271.792C0.0360865 254.882 6.75879 238.67 18.7115 226.713C30.6641 214.756 46.8704 208.031 63.774 208.014H101.038V139.996C101.038 102.977 115.739 67.4741 141.906 41.2978C168.073 15.1214 203.564 0.41571 240.57 0.41571C277.576 0.41571 313.066 15.1214 339.233 41.2978C365.4 67.4741 380.101 102.977 380.101 139.996V208.014H417.255C434.157 208.037 450.36 214.764 462.311 226.72C474.262 238.675 480.987 254.884 481.01 271.792V448.726C480.964 465.619 474.229 481.805 462.28 493.741C450.331 505.678 434.141 512.392 417.255 512.416H63.774ZM26.5097 448.726V271.792C26.5214 261.909 30.4512 252.434 37.4371 245.445C44.423 238.457 53.8945 234.526 63.774 234.514H417.255C422.153 234.508 427.005 235.468 431.532 237.339C436.06 239.209 440.174 241.954 443.641 245.415C447.108 248.877 449.859 252.989 451.737 257.514C453.614 262.04 454.582 266.891 454.585 271.792V448.726C454.582 453.626 453.614 458.478 451.737 463.004C449.859 467.529 447.108 471.64 443.641 475.102C440.174 478.564 436.06 481.309 431.532 483.179C427.005 485.05 422.153 486.009 417.255 486.004H63.774C53.8945 485.992 44.423 482.061 37.4371 475.072C30.4512 468.084 26.5214 458.609 26.5097 448.726ZM353.588 139.996V208.014H127.552V139.996C127.967 110.285 140.057 81.9313 161.206 61.0677C182.356 40.2041 210.866 28.5074 240.57 28.5074C270.273 28.5074 298.783 40.2041 319.933 61.0677C341.083 81.9313 353.173 110.285 353.588 139.996Z" />
  </symbol>

</svg>