<svg width="512" height="129" viewBox="0 0 512 129" fill="none" xmlns="http://www.w3.org/2000/svg">
  <path fill="#3D3C57" fill-rule="evenodd" clip-rule="evenodd" d="M44.8634 0C80.5812 0 109.569 28.8415 109.569 64.4602C109.569 99.7222 81.158 128.343 45.9328 128.912L44.8634 128.92H33.8977L32.1249 126.977V102.755C32.1249 102.755 34.4194 100.221 34.4017 100.221H44.8634C64.776 100.221 80.8858 84.1919 80.8858 64.4602C80.8858 44.9255 65.0967 29.0205 45.4595 28.7045L44.8634 28.6996H37.5662L28.683 37.588V82.1288L26.2643 84.3766H2.5167L0 82.1288V35.0572L2.5167 32.7175H23.8153L32.1249 24.4031V2.96481C32.1249 2.96481 34.5248 0 34.6755 0H44.8634ZM226.124 93.4843C221.556 100.841 212.668 104.207 204.272 104.207C184.272 104.207 169.333 87.1251 169.333 67.4248C169.333 52.5871 177.235 39.4949 190.815 33.3854C195.013 31.515 199.581 30.3929 204.272 30.3929C212.668 30.3929 219.211 32.6372 225.013 38.8716V9.6949H241.433V101.963H226.371V93.4843H226.124ZM185.753 66.8012C185.753 78.2725 194.025 88.9955 206.001 88.9955C217.606 88.9955 226.248 78.6466 226.248 67.3001C226.248 55.9535 217.606 45.6047 206.001 45.6047C194.889 45.6047 185.753 55.8288 185.753 66.8012ZM311.557 24.9066V9.6949H295.137V24.9066H311.557ZM311.557 101.963V32.7619H295.137V101.963H311.557ZM343.533 101.963V46.9437H353.163V32.2308H343.533C344.027 24.3756 347.113 23.7522 354.028 23.6275V8.38098H348.011C342.826 8.38098 337.34 10.8731 333.513 14.3643C328.14 19.4358 327.758 24.2051 327.21 31.038V31.0482L327.205 31.1189C327.175 31.4836 327.146 31.854 327.113 32.2308H321.311V46.9437H327.113V101.963H343.533ZM386.507 47.4748V101.963H370.088V47.4748H362.062V32.7619H370.088V9.6949H386.507V32.7619H396.384V47.4748H386.507ZM468.222 80.1429C463.779 94.2323 449.704 104.207 435.136 104.207C414.642 104.207 398.962 88.1228 398.962 67.5495C398.962 46.8515 414.271 30.3929 435.013 30.3929C455.012 30.3929 470.445 46.3527 470.445 66.4274C470.445 69.1705 470.074 72.038 469.459 74.7811H416.247C416.618 76.6515 417.48 78.2725 418.47 79.7687C422.173 85.5044 428.344 88.9955 435.136 88.9955C441.802 88.9955 447.605 86.2524 450.937 80.1429H468.222ZM453.655 61.4397H415.752C418.099 51.5895 425.135 45.6047 435.136 45.6047C445.137 45.6047 452.05 51.4647 453.655 61.4397ZM270.719 101.983V63.9775C270.719 53.8781 274.918 47.7683 285.658 47.3942V32.6928C277.511 32.6928 274.861 32.7826 269.609 39.4095H269.362V32.7826H254.301V101.983H270.719ZM497.062 63.9775V101.983H480.642V32.7826H495.704V39.4095H495.952C501.203 32.7826 503.851 32.6928 512 32.6928V47.3942C501.26 47.7683 497.062 53.8781 497.062 63.9775Z" />
</svg>
