<svg width="343" height="96" viewBox="0 0 343 96" fill="none" xmlns="http://www.w3.org/2000/svg">
  <path fill="white" fill-rule="evenodd" clip-rule="evenodd" d="M57.1245 85.1033C52.5564 92.4596 43.6675 95.8263 35.2721 95.8263C15.2719 95.8263 0.333466 78.7441 0.333466 59.0438C0.333466 44.2062 8.23485 31.1139 21.8152 25.0045C26.0129 23.1341 30.5807 22.0119 35.2721 22.0119C43.6675 22.0119 50.2108 24.2562 56.0134 30.4907V1.31393H72.4333V93.582H57.3715V85.1033H57.1245ZM16.7534 58.4203C16.7534 69.8915 25.0251 80.6145 37.0006 80.6145C48.6057 80.6145 57.2479 70.2656 57.2479 58.9191C57.2479 47.5726 48.6057 37.2237 37.0006 37.2237C25.8892 37.2237 16.7534 47.4478 16.7534 58.4203ZM142.557 16.5257V1.31393H126.137V16.5257H142.557ZM142.557 93.582V24.3809H126.137V93.582H142.557ZM174.533 93.582V38.5627H184.163V23.8498H174.533C175.027 15.9946 178.113 15.3712 185.028 15.2465V0H179.011C173.826 0 168.34 2.49212 164.513 5.98333C159.14 11.0548 158.758 15.8241 158.21 22.657V22.6672L158.205 22.7379C158.175 23.1026 158.146 23.473 158.113 23.8498H152.311V38.5627H158.113V93.582H174.533ZM217.507 39.0938V93.582H201.088V39.0938H193.062V24.3809H201.088V1.31393H217.507V24.3809H227.384V39.0938H217.507ZM299.222 71.7619C294.779 85.8513 280.704 95.8263 266.136 95.8263C245.642 95.8263 229.962 79.7418 229.962 59.1685C229.962 38.4705 245.271 22.0119 266.013 22.0119C286.012 22.0119 301.445 37.9717 301.445 58.0464C301.445 60.7895 301.074 63.657 300.459 66.4001H247.247C247.618 68.2705 248.48 69.8915 249.47 71.3878C253.173 77.1234 259.344 80.6145 266.136 80.6145C272.802 80.6145 278.605 77.8714 281.937 71.7619H299.222ZM284.655 53.0588H246.752C249.099 43.2085 256.135 37.2237 266.136 37.2237C276.137 37.2237 283.05 43.0838 284.655 53.0588ZM101.719 93.6024V55.5965C101.719 45.4971 105.918 39.3873 116.658 39.0132V24.3118C108.511 24.3118 105.861 24.4016 100.609 31.0285H100.362V24.4016H85.3005V93.6024H101.719ZM328.062 55.5965V93.6024H311.642V24.4016H326.704V31.0285H326.952C332.203 24.4016 334.851 24.3118 343 24.3118V39.0132C332.26 39.3873 328.062 45.4971 328.062 55.5965Z" />
</svg>