<svg width="436" height="734" viewBox="0 0 436 734" fill="none" xmlns="http://www.w3.org/2000/svg">
  <path fill="#3D3C57" fill-rule="evenodd" clip-rule="evenodd" d="M178.173 0C320.024 0 435.147 114.543 435.147 256.001C435.147 396.042 322.315 509.706 182.42 511.966L178.173 512H134.623L127.582 504.281V408.087C127.582 408.087 136.695 398.021 136.624 398.021H178.173C257.255 398.021 321.234 334.364 321.234 256.001C321.234 178.419 258.528 115.254 180.54 113.998L178.173 113.979H149.192L113.913 149.279V326.171L104.307 335.097H9.99494L0 326.171V139.228L9.99494 129.936H94.5811L127.582 96.9156V11.7746C127.582 11.7746 137.113 0 137.712 0H178.173Z" />
  <path fill="#3D3C57" fill-rule="evenodd" clip-rule="evenodd" d="M72.0937 720.46C66.2947 729.749 55.0107 734 44.3531 734C18.9637 734 0 712.43 0 687.555C0 668.819 10.0305 652.288 27.2701 644.573C32.5989 642.211 38.3975 640.794 44.3531 640.794C55.0107 640.794 63.3171 643.628 70.6832 651.501V614.659H91.5275V731.166H72.4072V720.46H72.0937ZM20.8443 686.767C20.8443 701.252 31.345 714.792 46.5473 714.792C61.2795 714.792 72.2503 701.725 72.2503 687.397C72.2503 673.07 61.2795 660.002 46.5473 660.002C32.4419 660.002 20.8443 672.912 20.8443 686.767ZM180.546 633.867V614.659H159.703V633.867H180.546ZM180.546 731.166V643.786H159.703V731.166H180.546ZM221.138 731.166V661.693H233.363V643.115H221.138C221.766 633.196 225.683 632.409 234.462 632.252V613H226.823C220.241 613 213.277 616.147 208.419 620.555C201.598 626.959 201.114 632.981 200.417 641.609V641.622L200.411 641.711C200.373 642.172 200.336 642.639 200.295 643.115H192.928V661.693H200.295V731.166H221.138ZM275.692 662.364V731.166H254.849V662.364H244.66V643.786H254.849V614.659H275.692V643.786H288.231V662.364H275.692ZM379.426 703.614C373.786 721.405 355.918 734 337.425 734C311.409 734 291.503 713.69 291.503 687.712C291.503 661.577 310.938 640.794 337.268 640.794C362.656 640.794 382.248 660.947 382.248 686.295C382.248 689.759 381.777 693.38 380.996 696.844H313.446C313.916 699.205 315.012 701.252 316.267 703.141C320.969 710.384 328.803 714.792 337.425 714.792C345.886 714.792 353.253 711.328 357.484 703.614H379.426ZM360.933 679.997H312.818C315.796 667.559 324.729 660.002 337.425 660.002C350.121 660.002 358.896 667.402 360.933 679.997ZM128.705 731.192V683.202C128.705 670.449 134.034 662.734 147.669 662.262V643.699C137.327 643.699 133.963 643.812 127.296 652.18H126.982V643.812H107.862V731.192H128.705ZM416.036 683.202V731.192H395.193V643.812H414.313V652.18H414.627C421.294 643.812 424.655 643.699 435 643.699V662.262C421.366 662.734 416.036 670.449 416.036 683.202Z" />
</svg>
