<svg width="582" height="232" viewBox="0 0 582 232" fill="none" xmlns="http://www.w3.org/2000/svg">
  <path fill="#3D3C57" d="M381.223 69.3139V84.5257H364.804V69.3139H381.223Z" />
  <path fill="#3D3C57" d="M381.223 92.3809V161.582H364.804V92.3809H381.223Z" />
  <path fill="#3D3C57" d="M413.199 106.563V161.582H396.78V106.563H390.977V91.8498H396.78C396.806 91.5414 396.831 91.2373 396.855 90.9371L396.871 90.7379L396.877 90.6672V90.657L396.877 90.6526C397.425 83.8221 397.808 79.0537 403.179 73.9833C407.007 70.4921 412.492 68 417.677 68H423.695V83.2465C416.779 83.3712 413.694 83.9946 413.199 91.8498H422.829V106.563H413.199Z" />
  <path fill="#3D3C57" d="M456.174 161.582V107.094H466.051V92.3809H456.174V69.3139H439.754V92.3809H431.729V107.094H439.754V161.582H456.174Z" />
  <path fill="#3D3C57" d="M340.386 123.597V161.602H323.967V92.4016H339.029V99.0285H339.276C344.528 92.4016 347.178 92.3118 355.324 92.3118V107.013C344.584 107.387 340.386 113.497 340.386 123.597Z" />
  <path fill="#3D3C57" d="M566.728 161.602V123.597C566.728 113.497 570.926 107.387 581.667 107.013V92.3118C573.517 92.3118 570.87 92.4016 565.618 99.0285H565.371V92.4016H550.309V161.602H566.728Z" />
  <path fill="#3D3C57" fill-rule="evenodd" clip-rule="evenodd" d="M537.889 139.762C533.446 153.851 519.37 163.826 504.803 163.826C484.309 163.826 468.628 147.742 468.628 127.169C468.628 106.471 483.938 90.0119 504.679 90.0119C524.679 90.0119 540.111 105.972 540.111 126.046C540.111 128.789 539.741 131.657 539.125 134.4H485.913C486.284 136.271 487.147 137.892 488.136 139.388C491.84 145.123 498.011 148.615 504.803 148.615C511.468 148.615 517.271 145.871 520.604 139.762H537.889ZM485.419 121.059H523.321C521.717 111.084 514.804 105.224 504.803 105.224C494.802 105.224 487.765 111.208 485.419 121.059Z" />
  <path fill="#3D3C57" fill-rule="evenodd" clip-rule="evenodd" d="M295.791 153.103C291.223 160.46 282.334 163.826 273.939 163.826C253.938 163.826 239 146.744 239 127.044C239 112.206 246.901 99.1139 260.482 93.0045C264.679 91.1341 269.247 90.0119 273.939 90.0119C282.334 90.0119 288.877 92.2562 294.68 98.4907V69.3139H311.1V161.582H296.038V153.103H295.791ZM275.667 148.615C263.692 148.615 255.42 137.892 255.42 126.42C255.42 115.448 264.556 105.224 275.667 105.224C287.272 105.224 295.914 115.573 295.914 126.919C295.914 138.266 287.272 148.615 275.667 148.615Z" />
  <path fill="url(#paint0_linear_2298_7094)" fill-rule="evenodd" clip-rule="evenodd" d="M80.6625 0C144.882 0 197 51.9022 197 116C197 179.456 145.919 230.961 82.5853 231.985L80.6625 232H60.9467L57.7592 228.503V184.914C57.7592 184.914 61.8846 180.353 61.8527 180.353H80.6625C116.465 180.353 145.429 151.509 145.429 116C145.429 80.8463 117.041 52.2243 81.7344 51.6555L80.6625 51.6468H67.5424L51.5708 67.6419V147.796L47.2221 151.841H4.52492L0 147.796V63.0877L4.52492 58.8773H42.8189L57.7592 43.9149V5.33537C57.7592 5.33537 62.0741 0 62.3452 0H80.6625Z" />

  <defs>
    <linearGradient id="paint0_linear_2298_7094" x1="290.833" y1="0" x2="290.833" y2="232" gradientUnits="userSpaceOnUse">
      <stop stop-color="#00C07A"/>
      <stop offset="1" stop-color="#EFF32B"/>
    </linearGradient>
  </defs>
</svg>
