<svg width="512" height="129" viewBox="0 0 512 129" fill="none" xmlns="http://www.w3.org/2000/svg">
  <path fill="url(#paint0_linear_2293_6894)" fill-rule="evenodd" clip-rule="evenodd" d="M44.8634 0C80.5812 0 109.569 28.8415 109.569 64.4602C109.569 99.7222 81.158 128.343 45.9328 128.912L44.8634 128.92H33.8977L32.1249 126.977V102.755C32.1249 102.755 34.4194 100.221 34.4017 100.221H44.8634C64.776 100.221 80.8858 84.1919 80.8858 64.4602C80.8858 44.9255 65.0967 29.0205 45.4595 28.7045L44.8634 28.6996H37.5662L28.683 37.588V82.1288L26.2643 84.3766H2.5167L0 82.1288V35.0572L2.5167 32.7175H23.8153L32.1249 24.4031V2.96481C32.1249 2.96481 34.5248 0 34.6755 0H44.8634Z" />
  
  <path fill="#3D3C57" d="M311.557 9.69491V24.9067H295.137V9.69491H311.557Z" />
  <path fill="#3D3C57" d="M311.557 32.7619V101.963H295.137V32.7619H311.557Z" />
  <path fill="#3D3C57" d="M343.533 46.9437V101.963H327.113V46.9437H321.311V32.2308H327.113C327.14 31.9224 327.164 31.6183 327.189 31.3181L327.205 31.1189L327.21 31.0482V31.038L327.211 31.0336C327.759 24.2031 328.141 19.4347 333.513 14.3643C337.34 10.8731 342.826 8.38098 348.011 8.38098H354.028V23.6275C347.113 23.7522 344.027 24.3756 343.533 32.2308H353.163V46.9437H343.533Z" />
  <path fill="#3D3C57" d="M386.507 101.963V47.4748H396.384V32.7619H386.507V9.69491H370.088V32.7619H362.062V47.4748H370.088V101.963H386.507Z" />
  <path fill="#3D3C57" d="M270.719 63.9775V101.983H254.301V32.7826H269.362V39.4095H269.609C274.861 32.7826 277.511 32.6928 285.658 32.6928V47.3942C274.918 47.7683 270.719 53.8781 270.719 63.9775Z" />
  <path fill="#3D3C57" d="M497.062 101.983V63.9775C497.062 53.8781 501.26 47.7683 512 47.3942V32.6928C503.851 32.6928 501.203 32.7826 495.952 39.4095H495.704V32.7826H480.642V101.983H497.062Z" />
  <path fill="#3D3C57" fill-rule="evenodd" clip-rule="evenodd" d="M468.222 80.1429C463.779 94.2323 449.704 104.207 435.136 104.207C414.642 104.207 398.962 88.1228 398.962 67.5495C398.962 46.8515 414.271 30.3929 435.013 30.3929C455.012 30.3929 470.445 46.3527 470.445 66.4274C470.445 69.1705 470.074 72.038 469.459 74.7811H416.247C416.618 76.6515 417.48 78.2725 418.47 79.7688C422.173 85.5044 428.344 88.9955 435.136 88.9955C441.802 88.9955 447.605 86.2524 450.937 80.1429H468.222ZM415.752 61.4397H453.655C452.05 51.4648 445.137 45.6047 435.136 45.6047C425.135 45.6047 418.099 51.5895 415.752 61.4397Z" />
  <path fill="#3D3C57" fill-rule="evenodd" clip-rule="evenodd" d="M226.125 93.4843C221.556 100.841 212.668 104.207 204.272 104.207C184.272 104.207 169.333 87.1251 169.333 67.4248C169.333 52.5871 177.235 39.4949 190.815 33.3854C195.013 31.515 199.581 30.3929 204.272 30.3929C212.668 30.3929 219.211 32.6372 225.013 38.8716V9.69491H241.433V101.963H226.372V93.4843H226.125ZM206.001 88.9955C194.025 88.9955 185.753 78.2725 185.753 66.8012C185.753 55.8288 194.889 45.6047 206.001 45.6047C217.606 45.6047 226.248 55.9535 226.248 67.3001C226.248 78.6466 217.606 88.9955 206.001 88.9955Z" />
  
  <defs>
    <linearGradient id="paint0_linear_2293_6894" x1="256" y1="0" x2="256" y2="128.92" gradientUnits="userSpaceOnUse">
      <stop stop-color="#00C07A"/>
      <stop offset="1" stop-color="#EFF32B"/>
    </linearGradient>
  </defs>
</svg>
