<svg width="436" height="512" viewBox="0 0 436 512" fill="none" xmlns="http://www.w3.org/2000/svg">
  <path fill="#fff" fill-rule="evenodd" clip-rule="evenodd" d="M178.173 0C320.024 0 435.147 114.543 435.147 256.001C435.147 396.042 322.315 509.706 182.42 511.966L178.173 512H134.623L127.582 504.282V408.087C127.582 408.087 136.695 398.021 136.625 398.021H178.173C257.255 398.021 321.234 334.364 321.234 256.001C321.234 178.419 258.528 115.254 180.54 113.998L178.173 113.979H149.192L113.913 149.279V326.171L104.307 335.097H9.99494L0 326.171V139.228L9.99494 129.936H94.5811L127.582 96.9156V11.7746C127.582 11.7746 137.113 0 137.712 0H178.173Z" />
</svg>
